<?xml version="1.0" encoding="utf-8" ?>
<svg baseProfile="full" height="1220.0mm" version="1.1" viewBox="0 0 2440.0 1220.0" width="2440.0mm" xmlns="http://www.w3.org/2000/svg" xmlns:ev="http://www.w3.org/2001/xml-events" xmlns:xlink="http://www.w3.org/1999/xlink"><defs><style type="text/css"><![CDATA[
        .cut { stroke: #ff0000; stroke-width: 0.5; fill: none; }
        .sheet { stroke: #cccccc; stroke-width: 1; fill: #f9f9f9; }
        .label { font-size: 8px; font-family: Arial, sans-serif; fill: #333; }
    ]]></style></defs><rect class="sheet" height="1220.0" width="2440.0" x="0" y="0" /><polygon class="cut" points="10.0,10.0 1213.1950776897272,10.0 1213.1950776897272,640.8437045756859 10.0,640.8437045756859" /><text class="label" text-anchor="middle" x="611.5975388448636" y="325.42185228784297">comp_0</text><polygon class="cut" points="1223.1950776897272,10.0 1292.6794692169433,10.0 1292.6794692169433,803.0942131876932 1223.1950776897272,803.0942131876932" /><text class="label" text-anchor="middle" x="1257.9372734533351" y="406.5471065938466">comp_1</text><polygon class="cut" points="1302.6794692169433,10.0 1372.1638607441594,10.0 1372.1638607441594,803.0942131876932 1302.6794692169433,803.0942131876932" /><text class="label" text-anchor="middle" x="1337.4216649805512" y="406.5471065938466">comp_2</text><polygon class="cut" points="1382.1638607441594,10.0 1451.6482522713754,10.0 1451.6482522713754,803.0942131876932 1382.1638607441594,803.0942131876932" /><text class="label" text-anchor="middle" x="1416.9060565077673" y="406.5471065938466">comp_3</text><polygon class="cut" points="1461.6482522713754,10.0 1531.1326437985915,10.0 1531.1326437985915,803.0942131876932 1461.6482522713754,803.0942131876932" /><text class="label" text-anchor="middle" x="1496.3904480349834" y="406.5471065938466">comp_4</text><polygon class="cut" points="1541.1326437985915,10.0 1610.6170353258076,10.0 1610.6170353258076,803.0942131876932 1541.1326437985915,803.0942131876932" /><text class="label" text-anchor="middle" x="1575.8748395621994" y="406.5471065938466">comp_5</text><polygon class="cut" points="1620.6170353258076,10.0 1690.1014268530237,10.0 1690.1014268530237,803.0942131876932 1620.6170353258076,803.0942131876932" /><text class="label" text-anchor="middle" x="1655.3592310894155" y="406.5471065938466">comp_6</text></svg>