<?xml version="1.0" encoding="utf-8" ?>
<svg baseProfile="full" height="1220.0mm" version="1.1" viewBox="0 0 2440.0 1220.0" width="2440.0mm" xmlns="http://www.w3.org/2000/svg" xmlns:ev="http://www.w3.org/2001/xml-events" xmlns:xlink="http://www.w3.org/1999/xlink"><defs><style type="text/css"><![CDATA[
        .cut { stroke: #ff0000; stroke-width: 0.5; fill: none; }
        .sheet { stroke: #cccccc; stroke-width: 1; fill: #f9f9f9; }
        .label { font-size: 8px; font-family: Arial, sans-serif; fill: #333; }
    ]]></style></defs><rect class="sheet" height="1220.0" width="2440.0" x="0" y="0" /><polygon class="cut" points="10.0,10.0 1521.2464973747885,10.0 1521.2464973747885,781.0037635200032 10.0,781.0037635200032" /><text class="label" text-anchor="middle" x="765.6232486873943" y="395.5018817600016">comp_0</text><polygon class="cut" points="1531.2464973747885,10.0 1590.7443282760014,10.0 1590.7443282760014,719.9408096545504 1531.2464973747885,719.9408096545504" /><text class="label" text-anchor="middle" x="1560.9954128253949" y="364.9704048272752">comp_1</text><polygon class="cut" points="1600.7443282760014,10.0 1660.2421591772143,10.0 1660.2421591772143,719.9408096545504 1600.7443282760014,719.9408096545504" /><text class="label" text-anchor="middle" x="1630.4932437266077" y="364.9704048272752">comp_2</text><polygon class="cut" points="1670.2421591772143,10.0 1729.7399900784271,10.0 1729.7399900784271,719.9408096545504 1670.2421591772143,719.9408096545504" /><text class="label" text-anchor="middle" x="1699.9910746278206" y="364.9704048272752">comp_3</text><polygon class="cut" points="1739.7399900784271,10.0 1799.23782097964,10.0 1799.23782097964,719.9408096545504 1739.7399900784271,719.9408096545504" /><text class="label" text-anchor="middle" x="1769.4889055290334" y="364.9704048272752">comp_4</text><polygon class="cut" points="1809.23782097964,10.0 1868.7356518808529,10.0 1868.7356518808529,719.9408096545504 1809.23782097964,719.9408096545504" /><text class="label" text-anchor="middle" x="1838.9867364302463" y="364.9704048272752">comp_5</text><polygon class="cut" points="1878.7356518808529,10.0 1938.2334827820657,10.0 1938.2334827820657,719.9408096545504 1878.7356518808529,719.9408096545504" /><text class="label" text-anchor="middle" x="1908.4845673314592" y="364.9704048272752">comp_6</text><polygon class="cut" points="10.0,791.0037635200032 916.7478984248731,791.0037635200032 916.7478984248731,827.0037635200032 10.0,827.0037635200032" /><text class="label" text-anchor="middle" x="463.37394921243657" y="809.0037635200032">comp_7</text></svg>