<?xml version="1.0" encoding="utf-8" ?>
<svg baseProfile="full" height="1220.0mm" version="1.1" viewBox="0 0 2440.0 1220.0" width="2440.0mm" xmlns="http://www.w3.org/2000/svg" xmlns:ev="http://www.w3.org/2001/xml-events" xmlns:xlink="http://www.w3.org/1999/xlink"><defs><style type="text/css"><![CDATA[
        .cut { stroke: #ff0000; stroke-width: 0.5; fill: none; }
        .sheet { stroke: #cccccc; stroke-width: 1; fill: #f9f9f9; }
        .label { font-size: 8px; font-family: Arial, sans-serif; fill: #333; }
    ]]></style></defs><rect class="sheet" height="1220.0" width="2440.0" x="0" y="0" /><polygon class="cut" points="10.0,10.0 1374.687533947071,10.0 1374.687533947071,701.9590968705693 10.0,701.9590968705693" /><text class="label" text-anchor="middle" x="692.3437669735355" y="355.97954843528464">comp_0</text><polygon class="cut" points="1384.687533947071,10.0 1433.032523397022,10.0 1433.032523397022,661.9883636591754 1384.687533947071,661.9883636591754" /><text class="label" text-anchor="middle" x="1408.8600286720464" y="335.9941818295877">comp_1</text><polygon class="cut" points="1443.032523397022,10.0 1491.377512846973,10.0 1491.377512846973,661.9883636591754 1443.032523397022,661.9883636591754" /><text class="label" text-anchor="middle" x="1467.2050181219975" y="335.9941818295877">comp_2</text><polygon class="cut" points="1501.377512846973,10.0 1549.7225022969242,10.0 1549.7225022969242,661.9883636591754 1501.377512846973,661.9883636591754" /><text class="label" text-anchor="middle" x="1525.5500075719485" y="335.9941818295877">comp_3</text><polygon class="cut" points="1559.7225022969242,10.0 1608.0674917468752,10.0 1608.0674917468752,661.9883636591754 1559.7225022969242,661.9883636591754" /><text class="label" text-anchor="middle" x="1583.8949970218996" y="335.9941818295877">comp_4</text><polygon class="cut" points="10.0,711.9590968705693 828.8125203682425,711.9590968705693 828.8125203682425,747.9590968705693 10.0,747.9590968705693" /><text class="label" text-anchor="middle" x="419.40626018412127" y="729.9590968705693">comp_5</text></svg>