<?xml version="1.0" encoding="utf-8" ?>
<svg baseProfile="full" height="150.69207220919557mm" version="1.1" viewBox="0 0 160.76538752748309 150.69207220919557" width="160.76538752748309mm" xmlns="http://www.w3.org/2000/svg" xmlns:ev="http://www.w3.org/2001/xml-events" xmlns:xlink="http://www.w3.org/1999/xlink"><defs><style type="text/css"><![CDATA[
        .cut { stroke: #ff0000; stroke-width: 0.5; fill: none; }
        .engrave { stroke: #0000ff; stroke-width: 0.25; fill: none; }
        .label { font-size: 12px; font-family: Arial, sans-serif; fill: #333; }
        .dim { font-size: 10px; font-family: Arial, sans-serif; fill: #666; }
    ]]></style></defs><polygon class="cut" points="31.389473469518066,51.163330586676295 26.638655726477168,50.6675683740383 20.678074654988336,51.59931174165982 66.46896379054226,129.85393482075966 101.79983450635211,130.69207220919557 105.50169992867666,122.38754465758203 139.58865971670173,62.630960596773946 140.76538752748309,50.16934447062411 80.70401931547542,50.004211614838994 63.96994293739965,58.089575021904324 60.55946640411639,51.61712629685911 53.557442019422865,51.981694234384065 48.620259439875895,42.96573139168362 56.49359808334566,38.07960004227263 52.55628478441088,32.31597158859208 43.08908077552621,21.261134735860338 31.984218463702405,20.0 20.0,21.017859568251907 34.94228037983942,45.746279601333384" /><text class="label" text-anchor="middle" x="80.38269376374154" y="65.34603610459779">part_17</text><text class="dim" text-anchor="middle" x="80.38269376374154" y="80.34603610459779">(brace)</text><text class="dim" text-anchor="middle" x="80.38269376374154" y="93.34603610459779">t=9.5mm</text><line class="engrave" x1="20.0" x2="140.76538752748309" y1="135.69207220919557" y2="135.69207220919557" /><text class="dim" text-anchor="middle" x="80.38269376374154" y="140.69207220919557">121mm</text><line class="engrave" x1="145.76538752748309" x2="145.76538752748309" y1="20.0" y2="130.69207220919557" /><text class="dim" text-anchor="middle" transform="rotate(-90, 150.76538752748309, 75.34603610459779)" x="150.76538752748309" y="75.34603610459779">111mm</text></svg>