<?xml version="1.0" encoding="utf-8" ?>
<svg baseProfile="full" height="620.8213696198189mm" version="1.1" viewBox="0 0 80.05482469515101 620.8213696198189" width="80.05482469515101mm" xmlns="http://www.w3.org/2000/svg" xmlns:ev="http://www.w3.org/2001/xml-events" xmlns:xlink="http://www.w3.org/1999/xlink"><defs><style type="text/css"><![CDATA[
        .cut { stroke: #ff0000; stroke-width: 0.5; fill: none; }
        .engrave { stroke: #0000ff; stroke-width: 0.25; fill: none; }
        .label { font-size: 12px; font-family: Arial, sans-serif; fill: #333; }
        .dim { font-size: 10px; font-family: Arial, sans-serif; fill: #666; }
    ]]></style></defs><polygon class="cut" points="20.604178079117617,245.1191984655281 26.858309220963577,254.05632416053567 20.373853592840874,266.1242216267044 20.76272895677863,287.6759663691907 21.295535401359132,298.59841863878023 26.932425065967095,285.5373250217834 25.94942240696406,303.3609279425302 22.320818669901257,316.7162779255749 33.21865091225129,324.67480604966795 28.55772253095057,334.8527020857034 22.27512561265513,334.7082907157733 22.492085356224095,347.2999986423688 21.466620481483176,358.0619910217205 23.112715406152006,394.5629014533844 25.070292910177955,414.2176138174844 23.13924399325498,414.2377360896467 23.451838556640325,444.2361074560883 31.071424883716475,444.1567084369884 31.04676615783046,441.7903153412759 31.47830874390462,443.3283376966297 31.433660511499113,474.5165264275894 31.390832023229507,474.80885377321636 31.379786222189693,473.74883520461407 23.760199895113544,473.82823422371393 24.07279445849889,503.8266055901555 26.0428461582635,503.8060768940003 25.831661773794508,504.7363257998349 30.522116381031708,508.6935480009462 36.214772146921916,516.6118154644621 29.208031817898302,523.0180963772593 29.32380429888167,533.3672280600463 24.38115579697211,533.4187323577812 24.693750360357456,563.4171037242228 32.313336687433605,563.3377047051229 32.288909831934745,560.9935632247566 39.49479878370198,572.7411544400691 30.72753956072279,581.8993411753272 34.103510693548856,593.2088261876523 32.91487324462372,599.9184936111184 42.586177411172685,600.8213696198189 44.47354831860832,586.3124438470805 48.848127453885525,570.1310287466239 52.09388254769374,552.9198120015616 51.63315162621518,493.63799920996183 51.68384443802654,493.6381316291462 57.152832333040124,502.18688718648446 56.781404127714495,493.65144741637823 57.224838710435506,493.6526057511333 57.30320410061722,463.6527081035476 56.12017080278406,463.6496177974715 54.775812231886334,450.06893944436797 51.01084401582227,443.2771452966455 55.76222926091128,431.63288649021956 57.38683482758108,431.6371302663357 57.4652002177628,401.63723261875 54.35954987165064,401.6291200743673 57.12437646511688,395.10213829196874 58.08783680868373,374.18302793921634 57.40602251419267,369.6212817389861 57.54883094472666,369.62165478153815 57.627196334908376,339.6217571339524 54.68412633238927,339.6140692800874 58.74838888854481,297.2009495323371 57.75307411486517,291.43313067462293 57.78919245205395,277.6062816491548 52.33309924034245,277.5920293047493 52.279458222339485,276.4301828459278 53.3598789000489,254.40092279522963 56.72590883280566,245.58770785538002 57.872823179017814,245.590703811943 57.95118856919953,215.59080616435728 57.878121326679775,215.59061529894046 57.27269813573611,197.64886180333343 58.20942564070015,183.57000721963647 56.241842226476194,160.32828348949448 48.461890404914925,181.3968733635573 53.21138244570864,155.05194097515692 58.327112894244976,134.51486772812353 58.36246266542133,124.89259938492529 50.43420023322881,139.4761376616247 52.62554805404261,109.38666732332672 50.10168935547705,91.77826258098105 57.3556584881282,78.26687488104301 56.57603351246348,64.86593224735913 45.22701972948175,67.98729511270636 57.839599681901575,58.99627342874868 52.70612058523727,44.673615491419184 51.70430429331623,29.02872862743726 60.05482469515101,20.0 49.97681580100448,21.377574708249824 26.160466259965688,28.97285834689353 24.99595805190802,43.494766145410665 30.11273320080295,51.877846203615775 23.15904512298249,65.02671947154721 25.261600985865698,75.46744212077141 22.042559441919366,84.86343051949717 27.12157556044042,82.02167389700031 20.5607821981431,103.96236671134392 29.988805162879544,114.24169928821863 22.879789536281464,119.70521850757905 20.486648042351817,148.91393819522756 23.985160293144418,164.24459676324994 20.423559717099295,174.4858520251775 20.0,196.6677678006654 24.797069106956542,218.57872903811375 21.69172398615615,227.34157341257156" /><text class="label" text-anchor="middle" x="40.027412347575506" y="300.41068480990947">part_0</text><text class="dim" text-anchor="middle" x="40.027412347575506" y="315.41068480990947">(leg)</text><text class="dim" text-anchor="middle" x="40.027412347575506" y="328.41068480990947">t=9.5mm</text><line class="engrave" x1="20.0" x2="60.05482469515101" y1="605.8213696198189" y2="605.8213696198189" /><text class="dim" text-anchor="middle" x="40.027412347575506" y="610.8213696198189">40mm</text><line class="engrave" x1="65.05482469515101" x2="65.05482469515101" y1="20.0" y2="600.8213696198189" /><text class="dim" text-anchor="middle" transform="rotate(-90, 70.05482469515101, 310.41068480990947)" x="70.05482469515101" y="310.41068480990947">581mm</text></svg>