<?xml version="1.0" encoding="utf-8" ?>
<svg baseProfile="full" height="708.7567006629212mm" version="1.1" viewBox="0 0 91.10219791790439 708.7567006629212" width="91.10219791790439mm" xmlns="http://www.w3.org/2000/svg" xmlns:ev="http://www.w3.org/2001/xml-events" xmlns:xlink="http://www.w3.org/1999/xlink"><defs><style type="text/css"><![CDATA[
        .cut { stroke: #ff0000; stroke-width: 0.5; fill: none; }
        .engrave { stroke: #0000ff; stroke-width: 0.25; fill: none; }
        .label { font-size: 12px; font-family: Arial, sans-serif; fill: #333; }
        .dim { font-size: 10px; font-family: Arial, sans-serif; fill: #666; }
    ]]></style></defs><polygon class="cut" points="29.071197104477278,104.62269732597343 32.237229761588765,122.36874304792354 25.530168604876394,136.5126298422336 24.983915792897335,167.22484352499487 29.431183803145302,181.32134303841315 27.894685957737806,199.28433895954214 28.99725140172933,237.6094508617956 34.234184246914026,254.86067242652615 26.095290319107846,263.0703650690092 31.103807731693564,299.2771379405733 24.984653050891836,290.4580693550433 27.826721662370858,300.14347372231896 20.0,320.78832673479013 21.359426092538456,335.9838433416216 25.411046289422643,357.822009474772 25.21945044622487,378.99917557730413 33.783255401839654,369.6661529738616 30.30934789529374,395.52316268233676 32.8576210802986,412.77176639613344 26.597266894185054,427.2733858180718 31.10471400364736,433.85074354579996 35.20181324041192,444.01770647145133 29.152473909937385,458.4921800032947 28.154770392297507,476.7766410439176 25.12658819388605,492.85140230928414 30.55556041418049,509.0980673462178 31.09542147030129,524.1273330346587 29.140830250129,532.2120435800587 33.59325393822826,581.3630942818922 33.37002142604143,598.3037723877849 35.30449200427961,610.2229223110307 30.09556614372042,604.4257881484341 30.93976919175566,617.2871512249022 35.63720719167071,626.79412037769 31.639110847341158,640.5955775118093 32.5597273536668,667.1329829581719 37.253660728232546,682.5032656369373 45.183300932117334,686.7524079004463 48.61119898928098,666.1518576287089 55.65926749417122,675.9190374814782 55.65926749417122,675.9190374814782 64.92301925357629,688.7567006629212 71.10219791790439,684.2977600898352 61.83844615849938,671.4600969083922 50.1964542139238,655.326679775987 48.60762683167002,621.5211159420699 57.47718271651064,613.1703689527887 51.64114406549379,597.1508471167981 53.366201945392106,587.0881378791353 59.25126651414888,587.1486609984147 59.559775885078295,557.1502473408885 55.466854695148015,557.1081549637387 59.43320643839161,543.3529822504757 53.2415802596899,536.6437727257185 58.85122690809453,525.0504553354356 58.37537804389626,523.8050374538441 59.90254282276828,523.8207431058368 60.2110521936977,493.82232944831065 54.6235083803399,493.7648660888617 55.72865017869458,475.5103106355662 58.545227376154,460.4721684750081 60.55381913138763,460.49282521325887 60.86232850231704,430.49441155573277 55.675988538056174,430.44107425269846 52.35678141688334,424.71096716829726 60.92877576943175,408.7872873566167 53.53324382673213,413.7503801359875 61.386479220741364,393.8179302923259 62.3572601948224,370.77920397901175 56.25185676981283,384.3329405655903 55.31964773765759,363.18619613667147 56.549638529333606,343.071836944633 60.55385801232643,333.6675703288756 55.400080714359035,309.6298444098539 60.505881452275844,292.18791608305355 60.37973423650692,277.9710814905399 53.08989182680989,272.51739160709917 54.545673632680746,245.0913423848133 60.22764193580065,254.46453947843776 58.197637336884725,219.4851395366333 59.909263219992226,200.2770577764939 59.55502152230082,150.36864990945412 54.721388694585585,162.97009362194922 58.5786191815547,143.00647335778774 58.543733531667044,125.18601822270898 57.13347883742705,114.00990291592484 59.46066529752966,107.16422585102566 57.598233536873636,91.19467782180448 59.12451550864989,85.6120440299245 55.015770995652076,80.11271924132052 58.563610586068705,28.564133291409348 52.16662139979269,20.0 27.94793561725953,20.92283492269064 45.65340216162855,27.629392786940002 26.011123638577544,27.66004687652594 26.911782904715267,40.737873294301835 30.613418544161732,52.823664221136255 29.92726490231024,57.77665183141312 40.77577722459034,74.28037170603704 28.601358152656815,77.37523108117426 27.721329763937888,86.40948306537825 30.927717833529414,95.15311021379404" /><text class="label" text-anchor="middle" x="45.551098958952196" y="344.3783503314606">part_9</text><text class="dim" text-anchor="middle" x="45.551098958952196" y="359.3783503314606">(leg)</text><text class="dim" text-anchor="middle" x="45.551098958952196" y="372.3783503314606">t=9.5mm</text><line class="engrave" x1="20.0" x2="71.10219791790439" y1="693.7567006629212" y2="693.7567006629212" /><text class="dim" text-anchor="middle" x="45.551098958952196" y="698.7567006629212">51mm</text><line class="engrave" x1="76.10219791790439" x2="76.10219791790439" y1="20.0" y2="688.7567006629212" /><text class="dim" text-anchor="middle" transform="rotate(-90, 81.10219791790439, 354.3783503314606)" x="81.10219791790439" y="354.3783503314606">669mm</text></svg>