<?xml version="1.0" encoding="utf-8" ?>
<svg baseProfile="full" height="254.28129848854337mm" version="1.1" viewBox="0 0 98.24138261989333 254.28129848854337" width="98.24138261989333mm" xmlns="http://www.w3.org/2000/svg" xmlns:ev="http://www.w3.org/2001/xml-events" xmlns:xlink="http://www.w3.org/1999/xlink"><defs><style type="text/css"><![CDATA[
        .cut { stroke: #ff0000; stroke-width: 0.5; fill: none; }
        .engrave { stroke: #0000ff; stroke-width: 0.25; fill: none; }
        .label { font-size: 12px; font-family: Arial, sans-serif; fill: #333; }
        .dim { font-size: 10px; font-family: Arial, sans-serif; fill: #666; }
    ]]></style></defs><polygon class="cut" points="38.35527216925618,150.53480769013663 47.46572636627229,146.70165261735713 45.95312486262674,153.51214744352905 33.37351674062461,159.13503882327643 31.633152447379416,178.39366323610534 28.300962949403356,187.22064157051892 24.559177898148164,204.32483129501998 23.239259735341193,214.5305775112815 20.0,227.68234614356592 32.69189919521614,234.28129848854337 36.96256320704208,226.62637604841345 40.93444506786068,221.3731348011379 42.83079050081085,207.62580349676907 41.91841367946586,197.34106082529527 47.71170797195782,185.9145092882076 49.3255280112885,173.72999711081795 59.71603322268561,117.8370230070048 61.14843805699536,105.22199902832273 63.76021018241431,93.63038940966692 59.65857136221439,82.9908712676094 66.97481216035226,79.7584646264342 67.43183155214467,67.4569722883989 70.55876518669868,46.4714497720264 78.24138261989333,24.198298238749885 69.49623875206873,20.0 64.86217918839986,39.26328296006267 58.08608735761618,55.80408837403655 57.579749452573424,73.45086381485379 50.91567265801086,68.72929313518063 50.33612447601115,81.60613813164173 37.330028489382585,141.27097961374903" /><text class="label" text-anchor="middle" x="49.120691309946665" y="117.14064924427169">part_12</text><text class="dim" text-anchor="middle" x="49.120691309946665" y="132.14064924427169">(leg)</text><text class="dim" text-anchor="middle" x="49.120691309946665" y="145.14064924427169">t=9.5mm</text><line class="engrave" x1="20.0" x2="78.24138261989333" y1="239.28129848854337" y2="239.28129848854337" /><text class="dim" text-anchor="middle" x="49.120691309946665" y="244.28129848854337">58mm</text><line class="engrave" x1="83.24138261989333" x2="83.24138261989333" y1="20.0" y2="234.28129848854337" /><text class="dim" text-anchor="middle" transform="rotate(-90, 88.24138261989333, 127.14064924427169)" x="88.24138261989333" y="127.14064924427169">214mm</text></svg>