<?xml version="1.0" encoding="utf-8" ?>
<svg baseProfile="full" height="151.37687845220165mm" version="1.1" viewBox="0 0 159.75585263559242 151.37687845220165" width="159.75585263559242mm" xmlns="http://www.w3.org/2000/svg" xmlns:ev="http://www.w3.org/2001/xml-events" xmlns:xlink="http://www.w3.org/1999/xlink"><defs><style type="text/css"><![CDATA[
        .cut { stroke: #ff0000; stroke-width: 0.5; fill: none; }
        .engrave { stroke: #0000ff; stroke-width: 0.25; fill: none; }
        .label { font-size: 12px; font-family: Arial, sans-serif; fill: #333; }
        .dim { font-size: 10px; font-family: Arial, sans-serif; fill: #666; }
    ]]></style></defs><polygon class="cut" points="52.99107623230816,118.10721193048897 60.9348592295276,130.53601720512847 73.33662584190677,130.37081778324432 85.0274461313702,131.37687845220165 93.95829749496261,130.96727594654772 98.36325288116939,125.35689241352509 111.86449571305025,101.37763402928789 117.2172354483838,93.95698233886986 136.1772171940397,59.775224034431574 138.2109587211487,50.583222361541175 128.37742901170452,44.153369387675866 131.46826550632102,37.03544204205468 139.75585263559242,26.393951872705884 139.04308638619978,20.0 112.07271348011056,20.460321919296803 107.60187433273188,28.61486000868416 125.23439769477966,32.190670573929026 118.89207212123983,46.28458214671264 106.3641020002973,51.20448298683817 97.22188048625662,46.710030973775986 86.76103751043593,57.82043350004375 71.12099961950378,57.32135090995445 67.71324161880318,50.253200603015614 20.0,50.30421068396157 25.652344441044818,70.39701737421478" /><text class="label" text-anchor="middle" x="79.87792631779621" y="65.68843922610083">part_21</text><text class="dim" text-anchor="middle" x="79.87792631779621" y="80.68843922610083">(panel)</text><text class="dim" text-anchor="middle" x="79.87792631779621" y="93.68843922610083">t=9.5mm</text><line class="engrave" x1="20.0" x2="139.75585263559242" y1="136.37687845220165" y2="136.37687845220165" /><text class="dim" text-anchor="middle" x="79.87792631779621" y="141.37687845220165">120mm</text><line class="engrave" x1="144.75585263559242" x2="144.75585263559242" y1="20.0" y2="131.37687845220165" /><text class="dim" text-anchor="middle" transform="rotate(-90, 149.75585263559242, 75.68843922610083)" x="149.75585263559242" y="75.68843922610083">111mm</text></svg>