<?xml version="1.0" encoding="utf-8" ?>
<svg baseProfile="full" height="50.78526888199076mm" version="1.1" viewBox="0 0 355.01637947437086 50.78526888199076" width="355.01637947437086mm" xmlns="http://www.w3.org/2000/svg" xmlns:ev="http://www.w3.org/2001/xml-events" xmlns:xlink="http://www.w3.org/1999/xlink"><defs><style type="text/css"><![CDATA[
        .cut { stroke: #ff0000; stroke-width: 0.5; fill: none; }
        .engrave { stroke: #0000ff; stroke-width: 0.25; fill: none; }
        .label { font-size: 12px; font-family: Arial, sans-serif; fill: #333; }
        .dim { font-size: 10px; font-family: Arial, sans-serif; fill: #666; }
    ]]></style></defs><polygon class="cut" points="240.8653734241792,20.0 273.5868641300125,24.47165730931556 241.67204491793603,23.698721928285977 225.10172227456184,20.864408119692825 213.85760695494054,23.39268639264128 189.82070841206564,22.046058204266274 170.3575421149066,22.823238960315393 161.7639283310424,21.8335436323282 104.04883129770366,21.66620146195112 70.38683830346059,20.24337849879589 20.0,20.62205859466087 68.79735420131851,24.660208038807582 93.37673868986116,29.298063545385048 111.70169886322924,30.152883399080338 126.01061556819974,28.04859260032663 148.7278185633932,30.550317347680334 199.51877729690017,28.78356426195171 230.26160001171627,30.78526888199076 262.96824003005474,29.25809971547369 297.85109582729143,30.190724391806498 333.5026630691093,29.59710748136831 335.01637947437086,21.847231302255977" /><text class="label" text-anchor="middle" x="177.50818973718543" y="15.39263444099538">part_14</text><text class="dim" text-anchor="middle" x="177.50818973718543" y="30.39263444099538">(brace)</text><text class="dim" text-anchor="middle" x="177.50818973718543" y="43.39263444099538">t=9.5mm</text><line class="engrave" x1="20.0" x2="335.01637947437086" y1="35.78526888199076" y2="35.78526888199076" /><text class="dim" text-anchor="middle" x="177.50818973718543" y="40.78526888199076">315mm</text><line class="engrave" x1="340.01637947437086" x2="340.01637947437086" y1="20.0" y2="30.78526888199076" /><text class="dim" text-anchor="middle" transform="rotate(-90, 345.01637947437086, 25.39263444099538)" x="345.01637947437086" y="25.39263444099538">11mm</text></svg>