<?xml version="1.0" encoding="utf-8" ?>
<svg baseProfile="full" height="610.0309251351653mm" version="1.1" viewBox="0 0 82.63456655825837 610.0309251351653" width="82.63456655825837mm" xmlns="http://www.w3.org/2000/svg" xmlns:ev="http://www.w3.org/2001/xml-events" xmlns:xlink="http://www.w3.org/1999/xlink"><defs><style type="text/css"><![CDATA[
        .cut { stroke: #ff0000; stroke-width: 0.5; fill: none; }
        .engrave { stroke: #0000ff; stroke-width: 0.25; fill: none; }
        .label { font-size: 12px; font-family: Arial, sans-serif; fill: #333; }
        .dim { font-size: 10px; font-family: Arial, sans-serif; fill: #666; }
    ]]></style></defs><polygon class="cut" points="24.33463651642944,113.31001624868316 30.55396206109191,100.13533889315221 20.0,136.0230272932381 27.874353828585754,148.98985726302044 22.634908389461202,168.69964863931568 30.966454049438084,179.1579306765919 24.626617304457284,194.15972848993658 31.66396932160319,213.84996750271432 29.303463567532276,225.8479827991785 26.220270154591617,234.05617271212242 25.311107229728634,252.00142652042018 34.52500141625501,256.9156784175216 35.01460202738417,263.52365293720607 27.762114447853264,263.78692994129017 25.457872757669577,281.2626725534045 30.271716831927222,287.1392264271077 25.626754864123768,315.98074435470465 25.402021789697017,321.17636645280345 28.803252237175002,327.2938187797699 25.72104180225125,336.30847536118904 26.457865303055883,347.94014549005743 33.15203755039687,355.5710472553445 27.21526750583712,373.49594015799596 37.28903778030201,375.33578897493277 27.04080437436056,393.2027733802027 28.505886036388347,413.54961573897714 28.17282739440492,422.90259913738987 35.94973407166765,441.4790102587952 28.032094920308452,450.0738944603314 34.09977219582771,469.18121505819704 32.90352619695949,501.89128244074175 33.94256560357957,523.7542977893439 30.01895044190826,536.5174663477196 34.7614778744595,550.5997846610979 37.23604239022609,583.8893280430278 34.37389220863338,590.0309251351653 46.030262486964205,590.0121583259684 51.790118443495544,589.2405119799051 54.99021854121321,572.9225958937136 56.19089990133659,521.24552629984 51.983493401706085,510.17705750890934 58.34085032515975,501.2608336120728 59.88538933674471,487.54572094846037 52.782012020943796,487.116492845018 58.51685638378382,474.42794725733415 57.45923651981491,461.9115381086292 59.95146494204323,446.26761869426997 59.59028886005996,427.29795583863205 60.703130031182525,422.3421132589579 60.42900037094256,405.62928781489836 61.95092716588363,362.6733389454648 62.04202451499032,343.6120963532379 59.31601786820278,332.0960959603414 61.49626408319875,318.164893676427 52.77125700696479,328.11207047545616 56.13089599824053,316.9739796380912 60.4407185847291,310.8552481128787 61.537309072519975,292.81437454330285 55.790413445054014,283.57661062312235 61.37440868508588,262.39629813828327 57.118878894466434,254.89180639686379 59.515479538316185,244.20967757950046 59.59685385613602,230.36469297614872 52.16156780902509,224.8681735394398 56.423864840901615,198.54887351019147 55.76620904463067,184.1991303090299 62.63456655825837,176.44519759294195 62.51596615281437,161.63763751244346 49.167065660720766,138.8206268058948 55.67853117644387,132.44258553230497 57.05373622304768,115.17705723138181 61.21119803648651,107.87084005890927 53.39518246177272,92.94931027353266 56.51528550693706,74.50855376193579 54.13840227963158,52.41161390623688 60.60359223175283,33.92355802409469 59.92925341673936,25.76365878474064 52.3505558982975,20.0 39.48086052773908,25.17641212379749 27.208235639532177,54.930441749294175 29.375326968950674,69.3251705714091 33.13822005116208,85.85067638923488 25.102050494246896,79.08209298665895 27.15260653002167,96.19965492223383 25.143661779223862,101.10647059611847" /><text class="label" text-anchor="middle" x="41.317283279129185" y="295.01546256758263">part_8</text><text class="dim" text-anchor="middle" x="41.317283279129185" y="310.01546256758263">(leg)</text><text class="dim" text-anchor="middle" x="41.317283279129185" y="323.01546256758263">t=9.5mm</text><line class="engrave" x1="20.0" x2="62.63456655825837" y1="595.0309251351653" y2="595.0309251351653" /><text class="dim" text-anchor="middle" x="41.317283279129185" y="600.0309251351653">43mm</text><line class="engrave" x1="67.63456655825837" x2="67.63456655825837" y1="20.0" y2="590.0309251351653" /><text class="dim" text-anchor="middle" transform="rotate(-90, 72.63456655825837, 305.01546256758263)" x="72.63456655825837" y="305.01546256758263">570mm</text></svg>