<?xml version="1.0" encoding="utf-8" ?>
<svg baseProfile="full" height="280.206372604068mm" version="1.1" viewBox="0 0 99.19944885943858 280.206372604068" width="99.19944885943858mm" xmlns="http://www.w3.org/2000/svg" xmlns:ev="http://www.w3.org/2001/xml-events" xmlns:xlink="http://www.w3.org/1999/xlink"><defs><style type="text/css"><![CDATA[
        .cut { stroke: #ff0000; stroke-width: 0.5; fill: none; }
        .engrave { stroke: #0000ff; stroke-width: 0.25; fill: none; }
        .label { font-size: 12px; font-family: Arial, sans-serif; fill: #333; }
        .dim { font-size: 10px; font-family: Arial, sans-serif; fill: #666; }
    ]]></style></defs><polygon class="cut" points="20.0,35.24765864762816 25.732673825260008,64.07245191855827 29.61203641221948,66.26325759116679 30.66489022296321,86.20527643780531 34.70256688522329,96.66109035175185 36.62921987045149,112.38968074808096 47.583653865489396,142.25366575637761 42.97439562861257,147.58718434657618 48.19525590181013,158.68153746770108 49.50323433587357,170.5096558298617 54.114397420379646,182.2038007983585 54.74405865507208,200.3404548826757 60.76353808692272,217.96905493096057 64.72032038378973,235.52162604167114 65.30691753424651,246.9574130558663 64.06526555344169,259.15489402872834 72.74852163140861,258.8249483141003 79.19944885943858,260.206372604068 78.33546500249201,244.72270518854438 68.51501241323206,199.23594570731044 67.15728091389008,171.21476369921882 63.688445333231016,153.41470744542306 58.08252138111618,133.61258852373584 56.00746398809849,121.00063669709186 50.34542436411061,100.46748699425791 40.501619688135634,83.94907770555847 49.057568457172124,91.14871837198058 37.400454912429154,38.7804457411724 25.71477263689121,20.0" /><text class="label" text-anchor="middle" x="49.59972442971929" y="130.103186302034">part_11</text><text class="dim" text-anchor="middle" x="49.59972442971929" y="145.103186302034">(leg)</text><text class="dim" text-anchor="middle" x="49.59972442971929" y="158.103186302034">t=9.5mm</text><line class="engrave" x1="20.0" x2="79.19944885943858" y1="265.206372604068" y2="265.206372604068" /><text class="dim" text-anchor="middle" x="49.59972442971929" y="270.206372604068">59mm</text><line class="engrave" x1="84.19944885943858" x2="84.19944885943858" y1="20.0" y2="260.206372604068" /><text class="dim" text-anchor="middle" transform="rotate(-90, 89.19944885943858, 140.103186302034)" x="89.19944885943858" y="140.103186302034">240mm</text></svg>