<?xml version="1.0" encoding="utf-8" ?>
<svg baseProfile="full" height="422.49525352610203mm" version="1.1" viewBox="0 0 74.47876213176022 422.49525352610203" width="74.47876213176022mm" xmlns="http://www.w3.org/2000/svg" xmlns:ev="http://www.w3.org/2001/xml-events" xmlns:xlink="http://www.w3.org/1999/xlink"><defs><style type="text/css"><![CDATA[
        .cut { stroke: #ff0000; stroke-width: 0.5; fill: none; }
        .engrave { stroke: #0000ff; stroke-width: 0.25; fill: none; }
        .label { font-size: 12px; font-family: Arial, sans-serif; fill: #333; }
        .dim { font-size: 10px; font-family: Arial, sans-serif; fill: #666; }
    ]]></style></defs><polygon class="cut" points="22.41613818770054,263.93864284246484 22.5943341307501,288.8734405437212 20.665514129569885,288.8802581132027 20.771550880913253,318.8800707160735 23.454404193880407,318.87058795518413 24.990160326734895,337.2559256135974 25.01872846680527,343.8004862743347 20.85968605472283,343.8151867443648 20.965722806066196,373.8149993472355 28.58567520719538,373.7880660123943 28.5259032608692,356.8774461944766 33.04681220871527,362.6661457094733 27.735606465420574,384.5147251685338 35.13331472985817,400.7869933588719 40.81950438628195,402.49525352610203 45.31911301514458,386.2443822590438 44.37841717528971,371.9502625921042 47.27191347508739,362.8274108348702 40.39245745450927,354.6037952739799 43.36640652595662,344.1692986166976 48.89907055282487,336.8901779041206 50.0265294187825,319.92936556319955 52.090348347410725,308.15595209993353 52.09553457710058,292.929613226508 45.84321122967191,283.64435289959624 45.55003751939711,264.0435316389551 43.75730851629976,251.8749397909392 50.34310823467786,244.84233750587603 53.05826796805263,237.6098135295414 54.47876213176022,227.2234551831976 50.18614473124279,213.82942212594463 52.99295874720849,213.82627770933132 52.959350378906265,183.8262965347109 45.703645529816924,183.8344249531736 47.670135033220674,148.79106634701964 52.92009453478187,148.7851849242456 52.88648616647964,118.7852037496252 48.405490502431974,118.79022371786323 48.55660904028667,110.04384399525571 52.14599565790638,85.13759372940555 51.75602013783816,83.74531459971956 52.8472303223553,83.7440921391599 52.813621954053076,53.74411096453949 51.925529478094006,53.745105876464436 45.85499826759042,43.61909555008444 42.66577963298306,22.239420029573523 26.138592497293132,20.0 24.94144633718082,43.706712339495596 25.58977299292644,95.54690095023304 20.0,120.50368701859162 21.66996302751454,160.49085890861608 20.197965113946566,174.7115241442019 20.743895603523015,179.00875117266855 20.277170279264055,179.0104008508785 20.383207030607423,209.01021345374932 22.06533728235746,209.00426782903514 22.27108639325496,212.97504456487428 24.098121335088308,228.341162503168 22.536373393816916,233.93803046315526 20.471342204417,233.94532948204062 20.577378955760366,263.9451420849114" /><text class="label" text-anchor="middle" x="37.23938106588011" y="201.24762676305102">part_3</text><text class="dim" text-anchor="middle" x="37.23938106588011" y="216.24762676305102">(leg)</text><text class="dim" text-anchor="middle" x="37.23938106588011" y="229.24762676305102">t=9.5mm</text><line class="engrave" x1="20.0" x2="54.47876213176022" y1="407.49525352610203" y2="407.49525352610203" /><text class="dim" text-anchor="middle" x="37.23938106588011" y="412.49525352610203">34mm</text><line class="engrave" x1="59.47876213176022" x2="59.47876213176022" y1="20.0" y2="402.49525352610203" /><text class="dim" text-anchor="middle" transform="rotate(-90, 64.47876213176022, 211.24762676305102)" x="64.47876213176022" y="211.24762676305102">382mm</text></svg>