<?xml version="1.0" encoding="utf-8" ?>
<svg baseProfile="full" height="703.3991919058195mm" version="1.1" viewBox="0 0 78.68277224535626 703.3991919058195" width="78.68277224535626mm" xmlns="http://www.w3.org/2000/svg" xmlns:ev="http://www.w3.org/2001/xml-events" xmlns:xlink="http://www.w3.org/1999/xlink"><defs><style type="text/css"><![CDATA[
        .cut { stroke: #ff0000; stroke-width: 0.5; fill: none; }
        .engrave { stroke: #0000ff; stroke-width: 0.25; fill: none; }
        .label { font-size: 12px; font-family: Arial, sans-serif; fill: #333; }
        .dim { font-size: 10px; font-family: Arial, sans-serif; fill: #666; }
    ]]></style></defs><polygon class="cut" points="24.308500414023513,224.57056873878338 21.710296643999015,245.43285301846214 30.070916210937924,256.24449380975864 26.940001652812043,267.1598009242632 21.928561288314086,292.62096087620057 31.54306476306931,295.0377240663007 20.77256082465061,310.0183939130016 24.189601691009557,320.77559531373316 21.177168952540228,343.48263560736154 20.95607145759959,358.18604526564553 27.52356999358466,354.86755744847346 21.021119624177175,378.00454832970047 28.524411152818686,379.04634916292275 28.63915666219947,389.90532894778414 21.42476475515457,428.58715562195096 25.77874543379255,460.8792231231423 20.0,473.83327729604184 20.313614811536183,487.70947601545845 27.882706660454062,504.4189787092415 27.75370224231864,514.1007028646924 25.91491651265852,528.4572632037136 31.367232722761514,561.4876393088318 21.384421120430204,545.6676430438893 22.456257761385302,557.1417263346976 26.711660693757892,579.9034812807245 31.39679724574154,623.4043777942243 23.32751470624288,625.9270925432779 29.68316864529254,652.6023437738844 41.707538437854794,683.3991919058195 46.932949257686516,683.2880839568421 48.86382311771075,661.9442931026689 48.940593976022456,652.9428614257176 47.792573903329696,643.6643203809783 47.359045710023736,627.4098715396882 48.82192872589707,610.8209966733425 48.98533618256113,597.4549759725395 52.45003467740946,576.534284025221 50.32325409345566,569.6860779193061 50.72654419595676,536.3961156065275 44.46173365567148,546.4321486848634 53.25445915956425,514.2683751356444 52.926039224974204,513.2979919245188 53.04213237094797,513.2991572541843 53.343253755332796,483.3006685270522 48.795980837329864,483.25502352377555 46.30162823361013,478.27092040251796 50.59789726408036,460.54963980799846 52.16545662586145,449.5540892257624 53.681845252405196,449.5693105606318 53.81989605799464,435.81633335608603 55.559618679124924,418.52356656049517 54.09645759270251,408.5997226293583 55.02335828990755,395.9540195256883 57.01387905544817,390.1660073921998 58.17766206312547,376.17645551310807 56.600433648626336,366.2486735911235 54.54364564061541,363.7145338114593 54.62267951824725,355.8409751399474 48.97057148215248,355.7842399286505 55.40229549672762,341.94553192741586 47.14210376413945,324.38372328427045 55.59541966436535,314.53405357895883 50.549214198547304,309.7665631127829 49.2434852436495,298.24280640581463 51.320193196294724,279.8537194490712 56.907538372396914,259.22070399227334 56.1570743792999,245.55289664809112 58.68277224535626,226.09053209226096 53.41616153593833,213.82139349054296 55.2545738917575,207.33740986154965 51.490863072679474,187.39585493463784 57.25590038708805,182.7083186505609 52.468924653009424,164.37213394124217 52.047455837398786,154.35463736596898 55.62814704569081,141.16069580614993 53.243861898618604,57.49558556306681 54.58807095911965,43.97512751753368 53.70586261150942,20.98174796013484 28.152194202182898,21.591382750001344 22.25112582816263,20.0 24.270481839080787,44.65907247329801 23.246786239673497,53.500912603657184 24.192803935635368,77.68969848008408 29.97246263681683,64.705127359789 29.491560901174637,91.1007134769306 23.495176248894666,87.62272169314508 22.963220493299445,99.40975622667122 23.992286367689985,113.66294229940746 26.009959834412427,120.86403674177518 22.556686342123783,127.31748977576376 22.374799942748155,135.56258270682645 23.34471713793647,142.86501182004264 22.455029442567877,181.89595407047864 24.912397087431486,192.59025673992357 22.618554907923965,205.30683419572415 29.282702118080465,210.69882870649337" /><text class="label" text-anchor="middle" x="39.34138612267813" y="341.69959595290976">part_5</text><text class="dim" text-anchor="middle" x="39.34138612267813" y="356.69959595290976">(leg)</text><text class="dim" text-anchor="middle" x="39.34138612267813" y="369.69959595290976">t=9.5mm</text><line class="engrave" x1="20.0" x2="58.68277224535626" y1="688.3991919058195" y2="688.3991919058195" /><text class="dim" text-anchor="middle" x="39.34138612267813" y="693.3991919058195">39mm</text><line class="engrave" x1="63.68277224535626" x2="63.68277224535626" y1="20.0" y2="683.3991919058195" /><text class="dim" text-anchor="middle" transform="rotate(-90, 68.68277224535626, 351.69959595290976)" x="68.68277224535626" y="351.69959595290976">663mm</text></svg>