<?xml version="1.0" encoding="utf-8" ?>
<svg baseProfile="full" height="372.9399551836934mm" version="1.1" viewBox="0 0 114.17660780646031 372.9399551836934" width="114.17660780646031mm" xmlns="http://www.w3.org/2000/svg" xmlns:ev="http://www.w3.org/2001/xml-events" xmlns:xlink="http://www.w3.org/1999/xlink"><defs><style type="text/css"><![CDATA[
        .cut { stroke: #ff0000; stroke-width: 0.5; fill: none; }
        .engrave { stroke: #0000ff; stroke-width: 0.25; fill: none; }
        .label { font-size: 12px; font-family: Arial, sans-serif; fill: #333; }
        .dim { font-size: 10px; font-family: Arial, sans-serif; fill: #666; }
    ]]></style></defs><polygon class="cut" points="23.60322182980235,61.20203131255113 31.708788094934903,86.33866823841379 31.825562802053696,98.63931999378019 34.07425939603809,114.49763014384126 42.69610539575672,119.90117753616022 37.66998437303471,131.89024501895028 39.47549637750001,140.58357057552917 48.22554381954876,165.26015565608662 49.5589563163436,180.1977887698198 49.15024053033858,190.97354299079632 56.992809517403884,227.87530306019295 62.238956505025044,225.92370048363784 61.97365260212473,251.35814359959028 64.09301367442606,261.34201199777016 68.30666598518587,268.6477032089519 71.85073466536721,282.50631376377555 73.30854504930699,310.39211222042934 76.84913808428996,322.0255303246446 81.4693818881675,332.149507145451 86.57236484431758,352.9399551836934 94.17660780646031,342.0839101624203 93.64368540058615,329.8376725161185 86.84439817810608,320.48649552800333 82.927979120479,268.3628390052372 76.99934930477332,254.78688674189596 79.12555659172494,249.17662435954458 74.21577127487672,237.3113554315279 74.75316720869375,227.1692595501816 66.92604842422168,205.89355306827656 73.09658128803255,216.56768717460972 69.75701205940425,201.99592611432547 61.528274184762154,182.80805867801598 60.64271013217581,166.41251317242865 57.66888675471171,153.71267586548947 58.183196230059934,139.86997519393384 48.33408519532327,145.4439985328754 54.804832338849906,133.69834978992532 52.34647253516687,120.39827162755336 51.43069162793688,110.21182192965364 49.1947729855176,97.54876790988163 43.32395626774655,81.46442699604182 37.368411214770504,76.47166440287612 33.24817630198038,70.74484766912553 40.02346907587946,63.553193162407695 35.16249739542479,45.716208009755576 31.95619402934767,37.451314847687456 32.76084815376123,28.397274290624864 29.254113769130868,20.0 21.044902514214186,21.95319103995439 21.508016606344768,48.18619181284538 20.0,53.706447591940844" /><text class="label" text-anchor="middle" x="57.088303903230155" y="176.4699775918467">part_13</text><text class="dim" text-anchor="middle" x="57.088303903230155" y="191.4699775918467">(leg)</text><text class="dim" text-anchor="middle" x="57.088303903230155" y="204.4699775918467">t=9.5mm</text><line class="engrave" x1="20.0" x2="94.17660780646031" y1="357.9399551836934" y2="357.9399551836934" /><text class="dim" text-anchor="middle" x="57.088303903230155" y="362.9399551836934">74mm</text><line class="engrave" x1="99.17660780646031" x2="99.17660780646031" y1="20.0" y2="352.9399551836934" /><text class="dim" text-anchor="middle" transform="rotate(-90, 104.17660780646031, 186.4699775918467)" x="104.17660780646031" y="186.4699775918467">333mm</text></svg>