<?xml version="1.0" encoding="utf-8" ?>
<svg baseProfile="full" height="432.3342816787958mm" version="1.1" viewBox="0 0 73.91145448665344 432.3342816787958" width="73.91145448665344mm" xmlns="http://www.w3.org/2000/svg" xmlns:ev="http://www.w3.org/2001/xml-events" xmlns:xlink="http://www.w3.org/1999/xlink"><defs><style type="text/css"><![CDATA[
        .cut { stroke: #ff0000; stroke-width: 0.5; fill: none; }
        .engrave { stroke: #0000ff; stroke-width: 0.25; fill: none; }
        .label { font-size: 12px; font-family: Arial, sans-serif; fill: #333; }
        .dim { font-size: 10px; font-family: Arial, sans-serif; fill: #666; }
    ]]></style></defs><polygon class="cut" points="23.860896583284784,246.69335054473223 21.784612687260505,246.69877418982435 21.86297807744222,276.6986718374101 24.859953506611703,276.6908431724049 27.49581607452228,303.7277305845792 29.78516741685661,316.17994438271876 29.970110159616297,342.1990818810509 27.21961573491933,373.89084923075904 28.351947695750027,388.36487312154173 34.80780252495896,400.15540589286826 37.6454038254754,410.6379380781913 47.17825762718286,412.3342816787958 47.87134895742486,372.7741010904217 50.718623133609015,359.1334029834205 50.52137752025732,335.14711503705087 47.49991840703899,356.9359473238478 42.59619540026375,332.229072512701 50.67605726459891,321.36461237944013 52.3290237160021,222.39841929643984 49.5225251821625,210.8981717254519 50.02915271450297,194.98454864788548 52.47711434207463,184.44610595353106 53.16197328321687,153.430523796131 48.45240104984134,162.38446672457468 49.88557248745002,92.40317937568639 53.91145448665344,77.61581413462721 46.04408279441981,56.08362121768414 40.21450427714234,48.27543948376888 50.641099241450036,42.34008401920988 49.57321081677361,26.360590560116748 29.074053228489674,20.0 25.426568579919262,31.678901690994053 21.75993538636078,53.336048962711146 21.279516061841605,53.33730390858659 21.286812604041984,56.130571685159396 20.0,63.731192910592824 22.02064357769433,94.13995198655664 28.793408094439826,117.77193943521684 21.447881603647886,117.79112733566583 21.526246993829602,147.79102498325162 22.071215385414916,147.78960142304 20.408469747674815,157.3192140556785 22.9102523080943,182.2415705772305 21.616247145454224,182.2449507627451 21.69461253563594,212.24484841033086 23.697219205344084,212.2396172240483 23.58658993277095,214.89707513714075 21.922132878094033,225.35186042544487 24.418948896490804,244.38211363901394" /><text class="label" text-anchor="middle" x="36.95572724332672" y="206.1671408393979">part_2</text><text class="dim" text-anchor="middle" x="36.95572724332672" y="221.1671408393979">(leg)</text><text class="dim" text-anchor="middle" x="36.95572724332672" y="234.1671408393979">t=9.5mm</text><line class="engrave" x1="20.0" x2="53.91145448665344" y1="417.3342816787958" y2="417.3342816787958" /><text class="dim" text-anchor="middle" x="36.95572724332672" y="422.3342816787958">34mm</text><line class="engrave" x1="58.91145448665344" x2="58.91145448665344" y1="20.0" y2="412.3342816787958" /><text class="dim" text-anchor="middle" transform="rotate(-90, 63.91145448665344, 216.1671408393979)" x="63.91145448665344" y="216.1671408393979">392mm</text></svg>