<?xml version="1.0" encoding="utf-8" ?>
<svg baseProfile="full" height="1220.0mm" version="1.1" viewBox="0 0 2440.0 1220.0" width="2440.0mm" xmlns="http://www.w3.org/2000/svg" xmlns:ev="http://www.w3.org/2001/xml-events" xmlns:xlink="http://www.w3.org/1999/xlink"><defs><style type="text/css"><![CDATA[
        .cut { stroke: #ff0000; stroke-width: 0.5; fill: none; }
        .sheet { stroke: #cccccc; stroke-width: 1; fill: #f9f9f9; }
        .label { font-size: 8px; font-family: Arial, sans-serif; fill: #333; }
    ]]></style></defs><rect class="sheet" height="1220.0" width="2440.0" x="0" y="0" /><polygon class="cut" points="10.604178079117617,235.1191984655281 16.858309220963577,244.05632416053567 10.373853592840874,256.1242216267044 10.76272895677863,277.6759663691907 11.295535401359132,288.59841863878023 16.932425065967095,275.5373250217834 15.94942240696406,293.3609279425302 12.320818669901257,306.7162779255749 23.21865091225129,314.67480604966795 18.55772253095057,324.8527020857034 12.275125612655131,324.7082907157733 12.492085356224095,337.2999986423688 11.466620481483176,348.0619910217205 13.112715406152006,384.5629014533844 15.070292910177955,404.2176138174844 13.13924399325498,404.2377360896467 13.451838556640325,434.2361074560883 21.071424883716475,434.1567084369884 21.04676615783046,431.7903153412759 21.47830874390462,433.3283376966297 21.433660511499113,464.5165264275894 21.390832023229507,464.80885377321636 21.379786222189693,463.74883520461407 13.760199895113544,463.82823422371393 14.07279445849889,493.8266055901555 16.0428461582635,493.8060768940003 15.831661773794508,494.7363257998349 20.522116381031708,498.6935480009462 26.214772146921916,506.6118154644621 19.208031817898302,513.0180963772593 19.32380429888167,523.3672280600463 14.38115579697211,523.4187323577812 14.693750360357456,553.4171037242228 22.313336687433605,553.3377047051229 22.288909831934745,550.9935632247566 29.49479878370198,562.7411544400691 20.72753956072279,571.8993411753272 24.103510693548856,583.2088261876523 22.91487324462372,589.9184936111184 32.586177411172685,590.8213696198189 34.47354831860832,576.3124438470805 38.848127453885525,560.1310287466239 42.09388254769374,542.9198120015616 41.63315162621518,483.63799920996183 41.68384443802654,483.6381316291462 47.152832333040124,492.18688718648446 46.781404127714495,483.65144741637823 47.224838710435506,483.6526057511333 47.30320410061722,453.6527081035476 46.12017080278406,453.6496177974715 44.775812231886334,440.06893944436797 41.01084401582227,433.2771452966455 45.76222926091128,421.63288649021956 47.38683482758108,421.6371302663357 47.4652002177628,391.63723261875 44.35954987165064,391.6291200743673 47.12437646511688,385.10213829196874 48.08783680868373,364.18302793921634 47.40602251419267,359.6212817389861 47.54883094472666,359.62165478153815 47.627196334908376,329.6217571339524 44.68412633238927,329.6140692800874 48.74838888854481,287.2009495323371 47.75307411486517,281.43313067462293 47.78919245205395,267.6062816491548 42.33309924034245,267.5920293047493 42.279458222339485,266.4301828459278 43.3598789000489,244.40092279522963 46.72590883280566,235.58770785538002 47.872823179017814,235.590703811943 47.95118856919953,205.59080616435728 47.878121326679775,205.59061529894046 47.27269813573611,187.64886180333343 48.20942564070015,173.57000721963647 46.241842226476194,150.32828348949448 38.461890404914925,171.3968733635573 43.21138244570864,145.05194097515692 48.327112894244976,124.51486772812353 48.36246266542133,114.89259938492529 40.43420023322881,129.4761376616247 42.62554805404261,99.38666732332672 40.10168935547705,81.77826258098105 47.3556584881282,68.26687488104301 46.57603351246348,54.865932247359126 35.22701972948175,57.98729511270636 47.839599681901575,48.99627342874868 42.70612058523727,34.673615491419184 41.70430429331623,19.02872862743726 50.05482469515101,10.0 39.97681580100448,11.377574708249824 16.160466259965688,18.97285834689353 14.99595805190802,33.494766145410665 20.11273320080295,41.877846203615775 13.15904512298249,55.02671947154721 15.261600985865698,65.46744212077141 12.042559441919366,74.86343051949717 17.12157556044042,72.02167389700031 10.560782198143102,93.96236671134392 19.988805162879544,104.24169928821863 12.879789536281464,109.70521850757905 10.486648042351817,138.91393819522756 13.985160293144418,154.24459676324994 10.423559717099295,164.4858520251775 10.0,186.6677678006654 14.797069106956542,208.57872903811375 11.691723986156148,217.34157341257156" /><text class="label" text-anchor="middle" x="30.027412347575506" y="300.41068480990947">part_0</text><polygon class="cut" points="61.87923836940746,269.5456758782488 75.96459163296794,253.72553019134793 73.78371176080242,246.2282727285411 81.08128084124002,230.0132849169525 83.71917475089282,211.01741695889072 88.4943550914864,195.48713056277342 93.82587544756717,186.34697010237903 94.73589558840735,166.3786115833745 98.98636295114335,150.64459130867698 102.30410625803569,132.35837950909826 104.28652126259016,126.78729701405257 107.50995632854921,110.27451842444918 109.69489437394083,81.73221535078397 110.06111039232275,107.20643039722518 123.27754572419764,42.61996923152742 128.99536287829534,19.967387824635807 117.1037855656403,10.0 115.2421244489513,23.949255874443963 117.46900137184792,34.24206466470241 111.03041435602069,35.754994326417716 110.71657677010984,36.50622660789469 105.77427916484629,35.469056102669924 99.6128132378098,64.8295114402489 99.72932042192139,64.8539611647816 96.17945810107886,79.40683338247192 99.72702063590606,88.17249799138762 97.70027381865697,94.66651307521835 93.53478724899782,93.7923609793674 87.37332132196133,123.15281631694637 87.76782619769205,123.23560550811919 85.94323002740686,133.12168549695684 80.51761247056658,148.70289318917852 72.26707608747148,183.07262999824084 70.89673493687513,192.00383170061536 62.958320551113786,226.43129985545258 60.05482469515101,250.3273231547718" /><text class="label" text-anchor="middle" x="94.52509378672318" y="139.7728379391244">part_1</text><polygon class="cut" points="142.85625946158012,236.69335054473223 140.77997556555584,236.69877418982435 140.85834095573756,266.6986718374101 143.85531638490704,266.6908431724049 146.49117895281762,293.7277305845792 148.78053029515195,306.17994438271876 148.96547303791164,332.1990818810509 146.21497861321467,363.89084923075904 147.34731057404537,378.36487312154173 153.8031654032543,390.15540589286826 156.64076670377074,400.6379380781913 166.1736205054782,402.3342816787958 166.8667118357202,362.7741010904217 169.71398601190435,349.1334029834205 169.51674039855266,325.14711503705087 166.49528128533433,346.9359473238478 161.5915582785591,322.229072512701 169.67142014289425,311.36461237944013 171.32438659429744,212.39841929643984 168.51788806045784,200.8981717254519 169.0245155927983,184.98454864788548 171.47247722036997,174.44610595353106 172.1573361615122,143.430523796131 167.44776392813668,152.38446672457468 168.88093536574536,82.40317937568639 172.90681736494878,67.61581413462721 165.03944567271515,46.08362121768414 159.20986715543768,38.27543948376888 169.63646211974537,32.34008401920988 168.56857369506895,16.360590560116748 148.069416106785,10.0 144.4219314582146,21.678901690994053 140.75529826465612,43.336048962711146 140.27487894013694,43.33730390858659 140.28217548233732,46.130571685159396 138.99536287829534,53.731192910592824 141.01600645598967,84.13995198655664 147.78877097273516,107.77193943521684 140.44324448194322,107.79112733566583 140.52160987212494,137.79102498325162 141.06657826371026,137.78960142304 139.40383262597015,147.3192140556785 141.90561518638964,172.2415705772305 140.61161002374956,172.2449507627451 140.68997541393128,202.24484841033086 142.69258208363942,202.2396172240483 142.5819528110663,204.89707513714075 140.91749575638937,215.35186042544487 143.41431177478614,234.38211363901394" /><text class="label" text-anchor="middle" x="155.95109012162206" y="206.1671408393979">part_2</text><polygon class="cut" points="185.32295555264932,253.93864284246484 185.50115149569888,278.8734405437212 183.57233149451866,278.8802581132027 183.67836824586203,308.8800707160735 186.3612215588292,308.87058795518413 187.89697769168367,327.2559256135974 187.92554583175405,333.8004862743347 183.7665034196716,333.8151867443648 183.87254017101498,363.8149993472355 191.49249257214416,363.7880660123943 191.43272062581798,346.8774461944766 195.95362957366405,352.6661457094733 190.64242383036935,374.5147251685338 198.04013209480695,390.7869933588719 203.72632175123073,392.49525352610203 208.22593038009336,376.2443822590438 207.2852345402385,361.9502625921042 210.17873084003617,352.8274108348702 203.29927481945805,344.6037952739799 206.2732238909054,334.1692986166976 211.80588791777365,326.8901779041206 212.93334678373128,309.92936556319955 214.9971657123595,298.15595209993353 215.00235194204936,282.929613226508 208.7500285946207,273.64435289959624 208.4568548843459,254.04353163895505 206.66412588124854,241.8749397909392 213.24992559962664,234.84233750587603 215.9650853330014,227.6098135295414 217.385579496709,217.2234551831976 213.09296209619157,203.82942212594463 215.89977611215727,203.82627770933132 215.86616774385504,173.8262965347109 208.6104628947657,173.8344249531736 210.57695239816945,138.79106634701964 215.82691189973065,138.7851849242456 215.79330353142842,108.7852037496252 211.31230786738075,108.79022371786323 211.46342640523545,100.04384399525571 215.05281302285516,75.13759372940555 214.66283750278694,73.74531459971956 215.75404768730408,73.7440921391599 215.72043931900185,43.74411096453949 214.83234684304279,43.745105876464436 208.7618156325392,33.61909555008444 205.57259699793184,12.239420029573523 189.0454098622419,10.0 187.8482637021296,33.706712339495596 188.49659035787522,85.54690095023304 182.90681736494878,110.50368701859162 184.57678039246332,150.49085890861608 183.10478247889534,164.7115241442019 183.6507129684718,169.00875117266855 183.18398764421283,169.0104008508785 183.2900243955562,199.01021345374932 184.97215464730624,199.00426782903514 185.17790375820374,202.97504456487428 187.0049387000371,218.341162503168 185.4431907587657,223.93803046315526 183.37815956936578,223.94532948204062 183.48419632070915,253.94514208491142" /><text class="label" text-anchor="middle" x="200.1461984308289" y="201.24762676305102">part_3</text><polygon class="cut" points="228.16097757722304,260.92235389352015 231.45321288675854,272.65370467829484 233.96670481831615,288.087394886942 233.37417844936215,308.9376433178229 227.385579496709,329.88638880791916 228.7019375587043,349.38432738529224 228.98006353562096,369.5629611562324 230.95280193951265,371.6867482815508 231.02790740049522,382.46959098050223 228.6997046628079,386.5689974150834 233.80928910365895,395.2586616919068 228.95446117104683,400.8033052689746 228.9078825858345,425.3275843575347 230.2154760362139,445.40170788277135 232.31915363340568,461.56240591353173 231.00138476278016,482.1525834504127 231.44607684689402,494.40798994643035 231.79773617417402,492.9934125921905 231.95031301609782,514.8987715959624 232.49259420071434,514.8949944585702 231.87225695853874,516.6557134974528 232.36019274376804,530.4984794487564 240.2278371751886,542.3255833824048 234.99963189504484,563.0129860642444 238.40049955556987,576.4696480796526 256.36958708561974,577.9019690015433 255.78921810739115,564.9674946192468 258.93967422932127,554.4824867112007 254.92530770358405,538.2307710278536 259.41947696809876,529.3867583827054 255.79219471720018,511.4547181103251 255.44123589814927,495.39663611799745 250.3255562080568,484.28199998315677 257.8348180905192,473.12353131450345 262.6244403031588,450.2367503374769 256.9020700369228,435.015513517852 255.72874444889305,398.75866108686057 259.45654639192844,384.1140190966854 260.20016069485536,373.1616418372353 259.67822642108285,357.7022186542016 258.42211162333024,346.29319333719184 264.3100075138161,320.44151368292296 264.8386580419797,301.07138210701976 263.0867960093582,290.8264796814019 264.1696183685413,274.047183683689 263.42792499011614,257.4734042370653 265.1690638746792,237.6452420059823 261.00266470238097,234.24026279096358 262.99576216036274,215.4483486633693 266.2795969796617,203.33702835247004 261.5015576464643,186.03617954655567 264.1885299256854,174.027156888852 262.9610643573913,156.12674292730338 265.71679365903157,165.94231288115094 265.351334285231,152.20271110354088 262.6775545961961,141.60035165836626 271.36887620233875,131.55892183217628 262.4129974844689,114.96163266856797 266.30829595013125,92.49169650300439 263.69093058770255,75.40691941608367 258.50596242896296,66.60969082895713 263.1761934999811,51.47322139028029 260.6549016754795,40.85023306600743 260.4163690556584,25.881726711078727 258.54700135805575,10.0 246.5150341281991,14.436058193595045 230.33149006066003,13.44763239813966 229.30349057064353,24.389360538390065 238.44986606651167,33.536814935886355 235.61240753440694,53.40483810731723 228.36333359323095,64.18354281077251 235.61014453432205,77.99848505296961 232.648651208981,89.93116686336191 228.87646483863637,93.3270583704205 230.65991804700337,107.80619155185195 235.2456611177667,121.41391284046972 228.66458844577022,132.7920702283393 230.16790413332154,150.13606321467125 228.3387561746569,169.66915601161674 229.4502395152632,193.5960433269707 227.80516784197613,222.87063350225253 230.53990839201776,232.26522284783482 230.22129666162374,243.33809042941323" /><text class="label" text-anchor="middle" x="249.37722784952388" y="293.95098450077165">part_4</text><polygon class="cut" points="285.67737661636227,214.57056873878338 283.07917284633777,235.43285301846214 291.4397924132767,246.24449380975864 288.3088778551508,257.1598009242632 283.29743749065284,282.62096087620057 292.91194096540806,285.0377240663007 282.14143702698937,300.0183939130016 285.5584778933483,310.77559531373316 282.546045154879,333.48263560736154 282.32494765993835,348.18604526564553 288.8924461959234,344.86755744847346 282.38999582651593,368.00454832970047 289.89328735515744,369.04634916292275 290.0080328645382,379.90532894778414 282.7936409574933,418.58715562195096 287.1476216361313,450.8792231231423 281.36887620233875,463.83327729604184 281.68249101387494,477.70947601545845 289.2515828627928,494.4189787092415 289.1225784446574,504.1007028646924 287.2837927149973,518.4572632037136 292.73610892510027,551.4876393088318 282.75329732276896,535.6676430438893 283.82513396372406,547.1417263346976 288.08053689609665,569.9034812807245 292.7656734480803,613.4043777942243 284.69639090858163,615.9270925432779 291.0520448476313,642.6023437738844 303.07641464019355,673.3991919058195 308.30182546002527,673.2880839568421 310.2326993200495,651.9442931026689 310.3094701783612,642.9428614257176 309.16145010566845,633.6643203809783 308.7279219123625,617.4098715396882 310.1908049282358,600.8209966733425 310.3542123848999,587.4549759725395 313.8189108797482,566.534284025221 311.6921302957944,559.6860779193061 312.0954203982955,526.3961156065275 305.83060985801023,536.4321486848634 314.623335361903,504.2683751356445 314.29491542731296,503.2979919245188 314.4110085732867,503.29915725418425 314.71212995767155,473.3006685270522 310.1648570396686,473.25502352377555 307.6705044359489,468.27092040251796 311.9667734664191,450.54963980799846 313.5343328282002,439.5540892257624 315.05072145474395,439.5693105606318 315.1887722603334,425.81633335608603 316.9284948814637,408.52356656049517 315.46533379504126,398.5997226293583 316.3922344922463,385.9540195256883 318.3827552577869,380.1660073921998 319.5465382654642,366.17645551310807 317.9693098509651,356.2486735911235 315.91252184295416,353.7145338114593 315.991555720586,345.8409751399474 310.33944768449123,345.7842399286505 316.7711716990664,331.94553192741586 308.5109799664782,314.38372328427045 316.9642958667041,304.53405357895883 311.91809040088606,299.7665631127829 310.61236144598826,288.24280640581463 312.6890693986335,269.8537194490712 318.27641457473567,249.22070399227334 317.52595058163865,235.55289664809112 320.051648447695,216.09053209226096 314.7850377382771,203.82139349054296 316.62345009409626,197.33740986154965 312.8597392750182,177.39585493463784 318.6247765894268,172.7083186505609 313.8378008553482,154.37213394124217 313.41633203973754,144.35463736596898 316.99702324802956,131.16069580614993 314.61273810095736,47.49558556306681 315.9569471614584,33.97512751753368 315.07473881384817,10.98174796013484 289.52107040452165,11.591382750001344 283.6200020305014,10.0 285.63935804141954,34.65907247329801 284.61566244201225,43.500912603657184 285.5616801379741,67.68969848008408 291.3413388391556,54.705127359789 290.8604371035134,81.1007134769306 284.8640524512334,77.62272169314508 284.3320966956382,89.40975622667122 285.36116257002874,103.66294229940746 287.3788360367512,110.86403674177518 283.92556254446254,117.31748977576376 283.7436761450869,125.56258270682645 284.7135933402752,132.86501182004264 283.82390564490663,171.89595407047864 286.28127328977024,182.59025673992357 283.9874311102627,195.30683419572415 290.6515783204192,200.69882870649337" /><text class="label" text-anchor="middle" x="300.71026232501686" y="341.69959595290976">part_5</text><polygon class="cut" points="346.0544666547705,195.90054624118824 348.4862781014757,196.41515308154823 354.6971751585098,167.06511461910458 353.4290627140166,166.79676349378764 358.52125282237944,149.653905859698 360.0635546219904,133.7275026427377 361.6795361869848,134.0694679576755 364.9653569269882,118.54208693457969 365.2165069777077,118.05398692788509 365.37734014740954,116.59523074710597 367.89043324401894,104.71942949523185 366.7141349346323,104.47050758266562 367.3158288582323,99.01314619623133 370.59874502866114,93.06465414992329 372.0110466720208,81.46716987753268 374.2692152982652,71.59605670221617 374.87279427249393,71.72378283380272 376.57466552873746,63.681468435385284 377.3082794646384,61.81035291604098 376.9604021066266,61.85864263527088 381.08369132952805,42.37374437135907 379.5220951654079,42.04328780202883 380.71009303261076,36.1001991354625 384.4619674412078,27.837362553896355 386.5051345356977,14.822409485929143 380.7960758928375,10.0 368.0538832099687,34.221813454976655 361.93941065204854,48.9076902877494 360.7370667724356,58.78626174620524 357.618973570221,72.43651143068348 357.5459322220163,90.78555477283413 350.12908410961927,99.84674462164668 357.7894238514565,115.64619475281302 357.7527305773448,115.8195914452075 348.85238193767134,105.01497062096126 344.6380882271859,123.79065094010292 344.8514350844159,139.32714689556366 340.41093722199935,149.57173594968532 337.4033123049443,165.12641271535261 338.18979966771224,181.615984053793 330.051648447695,193.48153377750526 333.3604755044254,205.12745191346465 332.623795158662,226.03511702725228 343.33190283387285,208.99265090415244" /><text class="label" text-anchor="middle" x="358.27839149169637" y="118.01755851362614">part_6</text><polygon class="cut" points="423.35061846659806,22.449009441889928 796.9374334023645,22.034511135305962 862.5567046644346,23.807236876041827 884.2341304988158,22.54203981501135 886.6351098377536,12.41613709186852 864.6362195914984,10.560386700958148 822.5761382121143,11.123233166023212 746.1704851692921,10.169912529944938 548.5386418604447,10.0 532.8159297878228,13.734758095791065 523.0907720943759,13.050411361433618 506.0374748366039,14.589408328922318 481.2655509761224,10.732712762309504 423.78543553148126,12.715469188877975 411.5061973222989,11.906788382674549 396.5051345356977,12.620317866627516 405.2740245686816,14.02920516033106" /><text class="label" text-anchor="middle" x="641.5701221867257" y="16.903618438020914">part_7</text><polygon class="cut" points="900.969746354183,103.31001624868316 907.1890718988454,90.13533889315221 896.6351098377536,126.0230272932381 904.5094636663393,138.98985726302044 899.2700182272148,158.69964863931568 907.6015638871917,169.1579306765919 901.2617271422109,184.15972848993658 908.2990791593568,203.84996750271432 905.9385734052859,215.8479827991785 902.8553799923452,224.05617271212242 901.9462170674822,242.00142652042018 911.1601112540086,246.91567841752158 911.6497118651378,253.5236529372061 904.3972242856069,253.7869299412902 902.0929825954231,271.2626725534045 906.9068266696809,277.1392264271077 902.2618647018774,305.98074435470465 902.0371316274507,311.17636645280345 905.4383620749286,317.2938187797699 902.3561516400048,326.30847536118904 903.0929751408095,337.94014549005743 909.7871473881505,345.5710472553445 903.8503773435907,363.49594015799596 913.9241476180556,365.33578897493277 903.6759142121141,383.2027733802027 905.1409958741419,403.54961573897714 904.8079372321586,412.90259913738987 912.5848439094212,431.4790102587952 904.6672047580621,440.0738944603314 910.7348820335812,459.18121505819704 909.5386360347131,491.89128244074175 910.5776754413332,513.7542977893439 906.6540602796618,526.5174663477196 911.3965877122131,540.5997846610979 913.8711522279797,573.8893280430278 911.009002046387,580.0309251351653 922.6653723247177,580.0121583259684 928.4252282812491,579.2405119799051 931.6253283789667,562.9225958937136 932.8260097390902,511.24552629984 928.6186032394596,500.17705750890934 934.9759601629133,491.2608336120728 936.5204991744984,477.54572094846037 929.4171218586973,477.116492845018 935.1519662215374,464.42794725733415 934.0943463575685,451.9115381086292 936.5865747797968,436.26761869426997 936.2253986978135,417.29795583863205 937.3382398689362,412.3421132589579 937.0641102086961,395.62928781489836 938.5860370036372,352.6733389454648 938.6771343527439,333.6120963532379 935.9511277059564,322.0960959603414 938.1313739209523,308.164893676427 929.4063668447184,318.11207047545616 932.7660058359941,306.9739796380912 937.0758284224827,300.8552481128787 938.1724189102736,282.81437454330285 932.4255232828076,273.57661062312235 938.0095185228395,252.39629813828327 933.75398873222,244.89180639686379 936.1505893760698,234.20967757950046 936.2319636938896,220.36469297614872 928.7966776467787,214.8681735394398 933.0589746786552,188.54887351019147 932.4013188823842,174.1991303090299 939.269676396012,166.44519759294195 939.151075990568,151.63763751244346 925.8021754984743,128.8206268058948 932.3136410141974,122.44258553230497 933.6888460608013,105.17705723138181 937.8463078742401,97.87084005890927 930.0302922995263,82.94931027353266 933.1503953446907,64.50855376193579 930.7735121173852,42.41161390623688 937.2387020695064,23.92355802409469 936.564363254493,15.763658784740642 928.985665736051,10.0 916.1159703654927,15.17641212379749 903.8433454772858,44.930441749294175 906.0104368067043,59.3251705714091 909.7733298889157,75.85067638923488 901.7371603320005,69.08209298665895 903.7877163677753,86.19965492223383 901.7787716169775,91.10647059611847" /><text class="label" text-anchor="middle" x="917.9523931168828" y="295.01546256758263">part_8</text><polygon class="cut" points="958.3408735004892,94.62269732597343 961.5069061576007,112.36874304792354 954.7998450008884,126.5126298422336 954.2535921889094,157.22484352499487 958.7008601991572,171.32134303841315 957.1643623537498,189.28433895954214 958.2669277977413,227.6094508617956 963.5038606429259,244.86067242652615 955.3649667151199,253.0703650690092 960.3734841277055,289.2771379405733 954.2543294469037,280.4580693550433 957.0963980583829,290.14347372231896 949.269676396012,310.78832673479013 950.6291024885504,325.9838433416216 954.6807226854346,347.822009474772 954.4891268422368,368.99917557730413 963.0529317978517,359.6661529738616 959.5790242913057,385.52316268233676 962.1272974763106,402.77176639613344 955.866943290197,417.2733858180718 960.3743903996593,423.85074354579996 964.4714896364239,434.01770647145133 958.4221503059493,448.4921800032947 957.4244467883095,466.7766410439176 954.396264589898,482.85140230928414 959.8252368101925,499.0980673462178 960.3650978663132,514.1273330346587 958.4105066461409,522.2120435800587 962.8629303342402,571.3630942818922 962.6396978220534,588.3037723877849 964.5741684002916,600.2229223110307 959.3652425397324,594.4257881484341 960.2094455877676,607.2871512249022 964.9068835876826,616.79412037769 960.9087872433531,630.5955775118093 961.8294037496787,657.1329829581719 966.5233371242446,672.5032656369373 974.4529773281292,676.7524079004463 977.8808753852929,656.1518576287089 984.9289438901832,665.9190374814782 984.9289438901832,665.9190374814782 994.1926956495882,678.7567006629212 1000.3718743139164,674.2977600898352 991.1081225545113,661.4600969083922 979.4661306099358,645.326679775987 977.877303227682,611.5211159420699 986.7468591125225,603.1703689527887 980.9108204615058,587.1508471167981 982.6358783414041,577.0881378791353 988.5209429101608,577.1486609984147 988.8294522810902,547.1502473408885 984.73653109116,547.1081549637387 988.7028828344036,533.3529822504757 982.5112566557018,526.6437727257185 988.1209033041065,515.0504553354356 987.6450544399082,513.8050374538441 989.1722192187802,513.8207431058368 989.4807285897097,483.82232944831065 983.8931847763519,483.7648660888617 984.9983265747065,465.5103106355662 987.814903772166,450.4721684750081 989.8234955273996,450.49282521325887 990.132004898329,420.49441155573277 984.9456649340682,420.44107425269846 981.6264578128953,414.71096716829726 990.1984521654438,398.7872873566167 982.8029202227441,403.7503801359875 990.6561556167533,383.8179302923259 991.6269365908344,360.77920397901175 985.5215331658248,374.3329405655903 984.5893241336696,353.18619613667147 985.8193149253456,333.071836944633 989.8235344083384,323.6675703288756 984.6697571103709,299.6298444098539 989.7755578482878,282.18791608305355 989.6494106325189,267.9710814905399 982.3595682228218,262.51739160709917 983.8153500286927,235.0913423848133 989.4973183318126,244.46453947843776 987.4673137328966,209.4851395366333 989.1789396160042,190.2770577764939 988.8246979183127,140.36864990945412 983.9910650905975,152.97009362194922 987.8482955775667,133.00647335778774 987.813409927679,115.18601822270898 986.4031552334391,104.00990291592484 988.7303416935416,97.16422585102566 986.8679099328856,81.19467782180448 988.3941919046619,75.6120440299245 984.2854473916641,70.11271924132052 987.8332869820806,18.564133291409348 981.4362977958046,10.0 957.2176120132715,10.92283492269064 974.9230785576406,17.629392786940002 955.2808000345894,17.66004687652594 956.1814593007273,30.737873294301835 959.8830949401737,42.823664221136255 959.1969412983221,47.77665183141312 970.0454536206023,64.28037170603704 957.8710345486688,67.37523108117426 956.9910061599498,76.40948306537825 960.1973942295414,85.15311021379404" /><text class="label" text-anchor="middle" x="974.8207753549641" y="344.3783503314606">part_9</text><polygon class="cut" points="1011.5773201942466,241.50899327888038 1011.9889842121358,242.81867695199477 1011.9862380754523,245.26997265521896 1012.7597558029711,245.27083921138524 1015.7012868828891,254.62913884874405 1017.2293351936995,274.0255980283116 1011.9540303542747,274.01968821167145 1011.9204219859724,304.01966938629187 1014.2398799979867,304.0222678278934 1011.750226738335,312.3781344030592 1012.2740750358165,321.3014803791868 1015.6872273705968,332.7736408998032 1011.8882142647949,332.76938494274435 1011.8546058964926,362.76936611736477 1012.2574400608801,362.76981740428005 1012.0916118591919,376.9852221625593 1019.3827948491044,389.5157421184982 1017.5361798016975,391.52548270707723 1011.8223981753151,391.51908167381725 1011.7887898070128,421.51906284843767 1013.3900879569787,421.5208567501629 1012.5194622867816,441.13889116073244 1018.8272098390345,435.3912015504146 1016.9534057202245,457.66884276889573 1023.0929737623405,466.673131541831 1017.6779182281699,471.7372480669967 1014.8057649140884,478.2586007893383 1016.1979193323166,487.1642972147955 1022.2961668936161,496.02658410110337 1016.4565337278138,504.00149856851385 1015.0056272958273,515.5354157920134 1018.1173661745732,530.7003286138142 1014.49993557791,541.3894883896315 1018.2327351352842,554.6602686741203 1026.6255032691156,565.8378726410706 1027.1590862058968,579.3696510246883 1031.555822390727,576.3268256338125 1038.016441325878,559.3660967513691 1038.413581476734,541.8734295316472 1036.0733559492046,523.6125533040968 1039.0248815349103,521.8284520651787 1038.9375563199744,546.5344153316247 1046.5575087211037,546.5613486664658 1046.663545472447,516.5615360635951 1039.7172395517316,516.5369837864386 1036.9948260212564,512.3484895855721 1041.8227748761954,482.62955057731295 1046.783418830608,482.6470843724889 1046.8894555819513,452.64727176961816 1040.844285807022,452.62590463067176 1041.150844010572,429.42202094697893 1036.4164558962261,415.4046828177988 1039.4185956221752,410.4392526844241 1039.3893765389832,418.7058867436708 1047.0093289401125,418.73282007851196 1047.1153656914557,388.7330074756412 1039.9719283055874,388.7077584214605 1042.2724356646204,370.83219521936223 1042.7150685120648,336.344191720067 1045.3026441906848,325.0014056853856 1042.9906223718608,306.14182328675173 1047.4823545864676,285.7057252894971 1047.6042426181036,276.3268973430876 1045.0808432850172,265.2129595810277 1047.8267746636004,253.00374374654126 1047.9911901042406,238.3642949453233 1048.8540947565377,231.42127999459598 1044.878923991159,223.5307692809199 1048.2365690810361,213.0153976290983 1048.8724012389666,208.362018495389 1048.352033217672,170.56591158632023 1043.2861496442065,157.49828263889083 1049.1111872108645,155.78589027146995 1048.2378890332038,136.80449941929623 1049.1876598182064,122.34132101513347 1047.9466643934238,102.32151612413298 1044.7284840966547,123.12707369339512 1043.9923136484622,104.92288432802013 1047.2887236828687,91.97971371627932 1044.0023207281406,77.18727599947056 1048.312745424123,70.51602118974108 1048.0669137077398,59.80597038672147 1040.6926114688254,57.08785891516504 1045.4178873873068,57.56824878718635 1044.288115108267,47.54451792872493 1044.7877743118297,33.81958397771484 1042.8135289043175,24.532967457164375 1035.7778946339636,10.0 1012.1660563427524,14.503525747668903 1016.104807140204,20.348560026438747 1010.9938142555577,31.31061700486015 1012.6996533248205,39.02144166391588 1012.217294712194,39.0209012873799 1012.1985929108656,55.71476999102413 1010.3718743139164,53.123826943924655 1011.4895378091292,70.38140697770712 1016.5868123629637,89.4290136439086 1017.6511318970936,97.77675916807834 1012.1514786227142,97.7705980184528 1012.1178702544119,127.77057919307322 1015.6129188664993,127.77449462489653 1016.408952831658,138.86282704054668 1011.3576828407108,155.99365345733645 1012.0839047288001,158.08937122058114 1012.074325401359,166.64020714080203 1010.6416799253088,164.8580256590697 1010.453611373415,190.77377195021273 1011.7434076093467,214.5930173817319" /><text class="label" text-anchor="middle" x="1029.7797670660614" y="294.68482551234416">part_10</text><polygon class="cut" points="1059.1876598182064,25.247658647628157 1064.9203336434664,54.07245191855827 1068.799696230426,56.26325759116679 1069.8525500411697,76.20527643780531 1073.8902267034296,86.66109035175185 1075.816879688658,102.38968074808096 1086.7713136836958,132.25366575637761 1082.162055446819,137.58718434657618 1087.3829157200166,148.68153746770108 1088.69089415408,160.5096558298617 1093.302057238586,172.2038007983585 1093.9317184732786,190.3404548826757 1099.951197905129,207.96905493096057 1103.907980201996,225.52162604167114 1104.4945773524528,236.9574130558663 1103.252925371648,249.15489402872834 1111.936181449615,248.8249483141003 1118.3871086776448,250.206372604068 1117.5231248206983,234.72270518854438 1107.7026722314386,189.23594570731044 1106.3449407320963,161.21476369921882 1102.8761051514375,143.41470744542306 1097.2701811993225,123.61258852373584 1095.1951238063048,111.00063669709186 1089.533084182317,90.46748699425791 1079.689279506342,73.94907770555847 1088.2452282753784,81.14871837198058 1076.5881147306354,28.7804457411724 1064.9024324550976,10.0" /><text class="label" text-anchor="middle" x="1088.7873842479257" y="130.103186302034">part_11</text><polygon class="cut" points="1146.7423808469011,140.53480769013663 1155.8528350439171,136.70165261735713 1154.3402335402716,143.51214744352905 1141.7606254182695,149.13503882327643 1140.0202611250243,168.39366323610534 1136.6880716270482,177.22064157051892 1132.946286575793,194.32483129501998 1131.626368412986,204.5305775112815 1128.3871086776448,217.68234614356592 1141.079007872861,224.28129848854337 1145.3496718846868,216.62637604841345 1149.3215537455055,211.3731348011379 1151.2178991784558,197.62580349676907 1150.3055223571107,187.34106082529527 1156.0988166496027,175.9145092882076 1157.7126366889333,163.72999711081795 1168.1031419003305,107.8370230070048 1169.5355467346403,95.22199902832273 1172.1473188600592,83.63038940966692 1168.0456800398592,72.9908712676094 1175.361920837997,69.7584646264342 1175.8189402297894,57.4569722883989 1178.9458738643434,36.4714497720264 1186.6284912975382,14.198298238749885 1177.8833474297135,10.0 1173.2492878660446,29.263282960062668 1166.473196035261,45.80408837403655 1165.9668581302183,63.45086381485379 1159.3027813356557,58.729293135180626 1158.723233153656,71.60613813164173 1145.7171371670274,131.27097961374903" /><text class="label" text-anchor="middle" x="1157.5077999875916" y="117.14064924427169">part_12</text><polygon class="cut" points="1200.2317131273405,51.20203131255113 1208.3372793924732,76.33866823841379 1208.4540540995918,88.63931999378019 1210.7027506935763,104.49763014384126 1219.324596693295,109.90117753616022 1214.2984756705728,121.89024501895028 1216.1039876750383,130.58357057552917 1224.8540351170868,155.26015565608662 1226.187447613882,170.1977887698198 1225.7787318278768,180.97354299079632 1233.621300814942,217.87530306019295 1238.8674478025632,215.92370048363784 1238.602143899663,241.35814359959028 1240.7215049719644,251.34201199777016 1244.935157282724,258.6477032089519 1248.4792259629053,272.50631376377555 1249.9370363468452,300.39211222042934 1253.4776293818281,312.0255303246446 1258.0978731857058,322.149507145451 1263.2008561418556,342.9399551836934 1270.8050991039986,332.0839101624203 1270.2721766981244,319.8376725161185 1263.4728894756443,310.48649552800333 1259.5564704180172,258.3628390052372 1253.6278406023116,244.78688674189596 1255.7540478892631,239.17662435954458 1250.844262572415,227.3113554315279 1251.3816585062318,217.1692595501816 1243.5545397217597,195.89355306827656 1249.7250725855706,206.56768717460972 1246.3855033569425,191.99592611432547 1238.1567654823002,172.80805867801598 1237.271201429714,156.41251317242865 1234.2973780522498,143.71267586548947 1234.8116875275982,129.86997519393384 1224.9625764928614,135.4439985328754 1231.4333236363882,123.69834978992532 1228.974963832705,110.39827162755336 1228.059182925475,100.21182192965364 1225.8232642830558,87.54876790988163 1219.9524475652847,71.46442699604182 1213.9969025123087,66.47166440287612 1209.8766675995184,60.744847669125534 1216.6519603734178,53.553193162407695 1211.7909886929629,35.716208009755576 1208.5846853268858,27.451314847687456 1209.3893394512993,18.397274290624864 1205.882605066669,10.0 1197.6733938117522,11.95319103995439 1198.1365079038828,38.18619181284538 1196.6284912975382,43.706447591940844" /><text class="label" text-anchor="middle" x="1233.7167952007683" y="176.4699775918467">part_13</text><polygon class="cut" points="1501.670472528178,10.0 1534.3919632340112,14.47165730931556 1502.4771440219347,13.698721928285977 1485.9068213785604,10.864408119692825 1474.6627060589392,13.39268639264128 1450.6258075160642,12.046058204266274 1431.1626412189053,12.823238960315393 1422.5690274350409,11.833543632328201 1364.8539304017022,11.666201461951118 1331.1919374074591,10.243378498795892 1280.8050991039986,10.62205859466087 1329.602453305317,14.660208038807582 1354.1818377938598,19.298063545385048 1372.5067979672278,20.152883399080338 1386.8157146721983,18.04859260032663 1409.5329176673918,20.550317347680334 1460.3238764008988,18.78356426195171 1491.066699115715,20.78526888199076 1523.7733391340535,19.25809971547369 1558.65619493129,20.190724391806498 1594.307762173108,19.59710748136831 1595.8214785783694,11.847231302255977" /><text class="label" text-anchor="middle" x="1438.313288841184" y="15.39263444099538">part_14</text><polygon class="cut" points="1823.7401880087154,11.50283915964485 1753.5147768365373,10.402928246266185 1724.2654672340748,12.770878514814484 1713.3473907465234,12.1613740783001 1620.405938020828,12.15002789296156 1605.8214785783694,14.214013287664017 1715.1737571889305,17.18252348894066 1819.660739490212,15.552205008661218 1927.1820091331965,15.554654345251578 1972.4096262247285,16.98791594030274 1985.5815805267546,16.182090046248476 2015.4920607989002,17.36499064859038 2053.6726582540487,16.394442011300043 2097.992943546482,18.074473985997543 2059.1934129884894,13.85415713269984 2021.69052715009,12.183092923365905 1980.1310925685175,12.205211686443988 1878.8177568712144,10.0" /><text class="label" text-anchor="middle" x="1851.9072110624256" y="14.037236992998771">part_15</text><polygon class="cut" points="2140.210587844713,390.7673811148538 2147.539311704051,349.0671822456555 2151.6558715616684,336.2723942290032 2153.435976342145,327.52884912560074 2156.2328034458515,299.06171700368617 2160.3606433173645,290.59140227535516 2159.716173967908,281.3889273452631 2173.5028586953104,231.8249516962021 2182.3524230811263,182.86510896768482 2185.4910071624017,174.46541182684234 2182.778992253313,152.2198922468806 2187.6202305742063,153.53189307669777 2192.255992156072,123.62535105164818 2201.509979535099,90.34998218629005 2205.122230762101,73.47582759623901 2199.6988190575876,63.053757726584536 2211.043039555311,52.42920993803375 2207.5560670460845,41.7874051329693 2214.6066715250377,36.00252995572555 2210.0156744907663,23.92019581984664 2203.0312295307654,32.40984691605843 2204.62640262489,19.162827583628086 2201.2214337019477,10.0 2199.253911426591,18.967664995699465 2196.1750300790704,43.27837472035196 2192.567178095153,50.6068343915025 2192.0608369492606,61.18681800078264 2187.474311546454,74.72649758559714 2190.771916022618,93.98821138930782 2183.5916955677603,96.82351510630997 2184.36746470278,109.93731891563993 2174.823397725397,139.67833305455338 2168.486837028618,176.137862712303 2161.382687438971,198.9689516170272 2171.2439350318373,199.87610834085245 2160.123366020701,215.2223053390466 2156.945842601058,230.00634543391072 2159.3607343918684,239.60852187887093 2145.57325927788,270.0276387994743 2145.169037200395,284.87714941934746 2139.3725079621513,299.78271644246166 2148.982104708351,297.48434291247037 2138.409793051992,317.12570098527056 2136.6306566069006,323.8278368467342 2125.96642038338,373.18927551565605 2127.720349942946,385.6587446278031 2122.43243403908,390.99806235907243 2119.395247131524,406.9551948957264 2127.523206231202,400.38540883152274 2120.9446777168773,415.0435979773585 2107.992943546482,448.99192752596014 2110.522881771112,459.20683508957256 2126.949023836252,453.5349345896643 2127.06487769903,429.0302924130473 2131.2006200697683,434.3667414808305 2133.816404406338,420.8761107263294 2132.0269862020796,412.5366073876813 2135.990368417424,399.4879921613691" /><text class="label" text-anchor="middle" x="2161.2998075357596" y="234.60341754478628">part_16</text><polygon class="cut" points="2235.996144994556,41.163330586676295 2231.245327251515,40.6675683740383 2225.284746180026,41.59931174165982 2271.07563531558,119.85393482075966 2306.4065060313897,120.69207220919557 2310.1083714537144,112.38754465758203 2344.1953312417395,52.630960596773946 2345.372059052521,40.16934447062411 2285.310690840513,40.004211614838994 2268.576614462437,48.089575021904324 2265.166137929154,41.61712629685911 2258.1641135444606,41.981694234384065 2253.2269309649137,32.96573139168362 2261.1002696083833,28.07960004227263 2257.1629563094484,22.315971588592078 2247.695752300564,11.261134735860338 2236.59088998874,10.0 2224.6066715250377,11.017859568251907 2239.548951904877,35.746279601333384" /><text class="label" text-anchor="middle" x="2284.989365288779" y="65.34603610459779">part_17</text><polygon class="cut" points="16.34089052094572,702.7984066885241 53.26336498333012,767.8259022054522 64.98838666116109,769.993658285909 75.1496342176248,770.1956128646016 89.18336726258508,768.6580166664621 133.90877634928353,689.7808168846816 123.39372850883439,688.7567006629212 10.0,689.1795654908046" /><text class="label" text-anchor="middle" x="71.95438817464176" y="729.4761567637613">part_18</text><polygon class="cut" points="169.85649513119677,740.7601088868965 160.7712788809642,714.1052331321443 184.7120006512626,754.7969834952057 190.8604454520028,776.0035727988418 224.2439026456645,775.8732396255841 228.83321118735347,770.3527352710748 233.27939536341813,761.1502298901889 246.89799244033696,738.5020150072266 265.8962950346476,704.3438419726708 267.69942930425844,695.0549328416071 257.8213910674154,688.7567006629212 248.33659752601278,690.9513990321175 235.84524320009797,695.9932664394803 226.66201907780015,691.595329695285 216.31432126304975,702.8072017781768 200.67448781140928,702.4682123234777 197.18102180212776,695.1795366613649 149.52044838315646,696.6685406034147 143.90877634928353,697.4651410932872" /><text class="label" text-anchor="middle" x="205.804102826771" y="732.3801367308815">part_19</text><polygon class="cut" points="277.76607656851337,698.4413476326285 297.88451187886955,731.9531339613015 319.0531414977565,770.1739382352625 353.6488336064934,768.460178478475 364.1999073990085,748.8112860158467 395.56807779456034,695.367624052755 397.2105435124718,688.8028840378838 277.69942930425844,688.7567006629212" /><text class="label" text-anchor="middle" x="337.45498640836513" y="729.4653194490918">part_20</text></svg>