<?xml version="1.0" encoding="utf-8" ?>
<svg baseProfile="full" height="609.3696510246883mm" version="1.1" viewBox="0 0 78.81578550428998 609.3696510246883" width="78.81578550428998mm" xmlns="http://www.w3.org/2000/svg" xmlns:ev="http://www.w3.org/2001/xml-events" xmlns:xlink="http://www.w3.org/1999/xlink"><defs><style type="text/css"><![CDATA[
        .cut { stroke: #ff0000; stroke-width: 0.5; fill: none; }
        .engrave { stroke: #0000ff; stroke-width: 0.25; fill: none; }
        .label { font-size: 12px; font-family: Arial, sans-serif; fill: #333; }
        .dim { font-size: 10px; font-family: Arial, sans-serif; fill: #666; }
    ]]></style></defs><polygon class="cut" points="21.205445880330217,251.50899327888038 21.617109898219553,252.81867695199477 21.614363761535913,255.26997265521896 22.387881489054678,255.27083921138524 25.32941256897277,264.62913884874405 26.85746087978316,284.0255980283116 21.582156040358313,284.01968821167145 21.54854767205609,314.01966938629187 23.868005684070397,314.0222678278934 21.37835242441861,322.3781344030592 21.902200721900158,331.3014803791868 25.315353056680465,342.7736408998032 21.51633995087849,342.76938494274435 21.482731582576264,372.76936611736477 21.885565746963778,372.76981740428005 21.719737545275507,386.9852221625593 29.010920535188063,399.5157421184982 27.164305487781178,401.52548270707723 21.45052386139872,401.51908167381725 21.416915493096496,431.51906284843767 23.018213643062325,431.5208567501629 22.147587972865324,451.13889116073244 28.45533552511813,445.3912015504146 26.581531406308102,467.66884276889573 32.721099448424184,476.673131541831 27.306043914253564,481.7372480669967 24.43389060017205,488.2586007893383 25.826045018400237,497.1642972147955 31.92429257969974,506.02658410110337 26.084659413897498,514.0014985685139 24.633752981910902,525.5354157920134 27.745491860656898,540.7003286138142 24.128061263993686,551.3894883896315 27.860860821367908,564.6602686741203 36.25362895519919,575.8378726410706 36.78721189198046,589.3696510246883 41.18394807681045,586.3268256338125 47.64456701196184,569.3660967513691 48.041707162817545,551.8734295316472 45.70148163528836,533.6125533040968 48.65300722099391,531.8284520651787 48.565682006058125,556.5344153316247 56.18563440718731,556.5613486664658 56.29167115853056,526.5615360635951 49.34536523781526,526.5369837864386 46.62295170734001,522.3484895855721 51.45090056227906,492.62955057731295 56.41154451669172,492.6470843724889 56.517581268034974,462.64727176961816 50.47241149310577,462.62590463067176 50.77896969665562,439.42202094697893 46.04458158230983,425.4046828177988 49.04672130825884,420.4392526844241 49.01750222506689,428.7058867436708 56.637454626196075,428.73282007851196 56.74349137753933,398.7330074756412 49.600053991671075,398.7077584214605 51.900561350703924,380.83219521936223 52.34319419814847,346.344191720067 54.93076987676841,335.0014056853856 52.618748057944345,316.14182328675173 57.11048027255134,295.7057252894971 57.23236830418733,286.3268973430876 54.70896897110089,275.2129595810277 57.45490034968407,263.00374374654126 57.61931579032415,248.3642949453233 58.48222044262138,241.42127999459598 54.507049677242605,233.5307692809199 57.86469476711966,223.0153976290983 58.50052692505034,218.362018495389 57.98015890375564,180.56591158632023 52.914275330290025,167.49828263889083 58.739312896948036,165.78589027146995 57.86601471928759,146.80449941929623 58.81578550428998,132.34132101513347 57.57479007950752,112.32151612413298 54.35660978273836,133.12707369339512 53.62043933454595,114.92288432802013 56.916849368952285,101.97971371627932 53.630446414224366,87.18727599947056 57.940871110206785,80.51602118974108 57.695039393823436,69.80597038672147 50.3207371549089,67.08785891516504 55.0460130733905,67.56824878718635 53.91624079435064,57.54451792872493 54.41589999791324,43.81958397771484 52.4416545904013,34.532967457164375 45.40602032004722,20.0 21.794182028836076,24.503525747668903 25.73293282628771,30.348560026438747 20.621939941641358,41.31061700486015 22.32777901090418,49.02144166391588 21.845420398277554,49.0209012873799 21.826718596949263,65.71476999102413 20.0,63.123826943924655 21.11766349521281,80.38140697770712 26.214938049047248,99.4290136439086 27.27925758317724,107.77675916807834 21.779604308797786,107.7705980184528 21.74599594049556,137.77057919307322 25.24104455258299,137.77449462489653 26.037078517741634,148.86282704054668 20.98580852679447,165.99365345733645 21.71203041488377,168.08937122058114 21.702451087442682,176.64020714080203 20.269805611392428,174.8580256590697 20.081737059498664,200.77377195021273 21.371533295430368,224.5930173817319" /><text class="label" text-anchor="middle" x="39.40789275214499" y="294.68482551234416">part_10</text><text class="dim" text-anchor="middle" x="39.40789275214499" y="309.68482551234416">(leg)</text><text class="dim" text-anchor="middle" x="39.40789275214499" y="322.68482551234416">t=9.5mm</text><line class="engrave" x1="20.0" x2="58.81578550428998" y1="594.3696510246883" y2="594.3696510246883" /><text class="dim" text-anchor="middle" x="39.40789275214499" y="599.3696510246883">39mm</text><line class="engrave" x1="63.81578550428998" x2="63.81578550428998" y1="20.0" y2="589.3696510246883" /><text class="dim" text-anchor="middle" transform="rotate(-90, 68.81578550428998, 304.68482551234416)" x="68.81578550428998" y="304.68482551234416">569mm</text></svg>