<?xml version="1.0" encoding="utf-8" ?>
<svg baseProfile="full" height="489.20683508957256mm" version="1.1" viewBox="0 0 146.61372797855563 489.20683508957256" width="146.61372797855563mm" xmlns="http://www.w3.org/2000/svg" xmlns:ev="http://www.w3.org/2001/xml-events" xmlns:xlink="http://www.w3.org/1999/xlink"><defs><style type="text/css"><![CDATA[
        .cut { stroke: #ff0000; stroke-width: 0.5; fill: none; }
        .engrave { stroke: #0000ff; stroke-width: 0.25; fill: none; }
        .label { font-size: 12px; font-family: Arial, sans-serif; fill: #333; }
        .dim { font-size: 10px; font-family: Arial, sans-serif; fill: #666; }
    ]]></style></defs><polygon class="cut" points="52.217644298230994,400.7673811148538 59.54636815756953,359.0671822456555 63.66292801518625,346.2723942290032 65.44303279566304,337.52884912560074 68.23985989936943,309.06171700368617 72.36769977088272,300.59140227535516 71.72323042142614,291.3889273452631 85.50991514882855,241.8249516962021 94.35947953464427,192.86510896768482 97.49806361592005,184.46541182684234 94.78604870683114,162.2198922468806 99.62728702772449,163.53189307669777 104.2630486095901,133.62535105164818 113.51703598861684,100.34998218629005 117.12928721561889,83.47582759623901 111.70587551110555,73.05375772658454 123.05009600882954,62.42920993803375 119.56312349960274,51.7874051329693 126.61372797855563,46.00252995572555 122.02273094428415,33.92019581984664 115.03828598428356,42.40984691605843 116.63345907840824,29.162827583628086 113.22849015546592,20.0 111.2609678801092,28.967664995699465 108.18208653258864,53.27837472035196 104.57423454867092,60.6068343915025 104.06789340277885,71.18681800078264 99.48136799997212,84.72649758559714 102.77897247613589,103.98821138930782 95.5987520212783,106.82351510630997 96.37452115629833,119.93731891563993 86.83045417891515,149.67833305455338 80.49389348213617,186.137862712303 73.38974389248926,208.9689516170272 83.25099148535514,209.87610834085245 72.13042247421868,225.2223053390466 68.95289905457605,240.00634543391072 71.36779084538671,249.60852187887093 57.58031573139817,280.0276387994743 57.17609365391297,294.87714941934746 51.379564415669506,309.78271644246166 60.98916116186899,307.48434291247037 50.416849505509845,327.12570098527056 48.63771306041849,333.8278368467342 37.97347683689816,383.18927551565605 39.72740639646406,395.6587446278031 34.43949049259811,400.99806235907243 31.402303585041977,416.9551948957264 39.53026268472024,410.38540883152274 32.951734170395525,425.0435979773585 20.0,458.99192752596014 22.5299382246302,469.20683508957256 38.95608028976983,463.5349345896643 39.07193415254835,439.0302924130473 43.20767652328641,444.3667414808305 45.82346085985603,430.8761107263294 44.03404265559789,422.5366073876813 47.997424870942154,409.4879921613691" /><text class="label" text-anchor="middle" x="73.30686398927782" y="234.60341754478628">part_16</text><text class="dim" text-anchor="middle" x="73.30686398927782" y="249.60341754478628">(panel)</text><text class="dim" text-anchor="middle" x="73.30686398927782" y="262.6034175447863">t=19.0mm</text><line class="engrave" x1="20.0" x2="126.61372797855563" y1="474.20683508957256" y2="474.20683508957256" /><text class="dim" text-anchor="middle" x="73.30686398927782" y="479.20683508957256">107mm</text><line class="engrave" x1="131.61372797855563" x2="131.61372797855563" y1="20.0" y2="469.20683508957256" /><text class="dim" text-anchor="middle" transform="rotate(-90, 136.61372797855563, 244.60341754478628)" x="136.61372797855563" y="244.60341754478628">449mm</text></svg>