<?xml version="1.0" encoding="utf-8" ?>
<svg baseProfile="full" height="127.24687213592068mm" version="1.1" viewBox="0 0 163.79065295497492 127.24687213592068" width="163.79065295497492mm" xmlns="http://www.w3.org/2000/svg" xmlns:ev="http://www.w3.org/2001/xml-events" xmlns:xlink="http://www.w3.org/1999/xlink"><defs><style type="text/css"><![CDATA[
        .cut { stroke: #ff0000; stroke-width: 0.5; fill: none; }
        .engrave { stroke: #0000ff; stroke-width: 0.25; fill: none; }
        .label { font-size: 12px; font-family: Arial, sans-serif; fill: #333; }
        .dim { font-size: 10px; font-family: Arial, sans-serif; fill: #666; }
    ]]></style></defs><polygon class="cut" points="45.94771878191324,72.00340822397538 36.86250253168066,45.348532469223244 60.80322430197907,86.0402828322845 66.95166910271928,107.24687213592068 100.33512629638096,107.1165389626629 104.92443483806994,101.59603460815362 109.3706190141346,92.39352922726772 122.98921609105344,69.74531434430554 141.98751868536408,35.5871413097496 143.79065295497492,26.298232178685964 133.91261471813186,20.0 124.42782117672925,22.194698369196374 111.93646685081444,27.23656577655919 102.75324272851662,22.83862903236394 92.40554491376622,34.050501115255656 76.76571146212575,33.711511660556596 73.27224545284423,26.422835998443645 25.611672033872935,27.911839940493564 20.0,28.708440430366068" /><text class="label" text-anchor="middle" x="81.89532647748746" y="53.62343606796034">part_19</text><text class="dim" text-anchor="middle" x="81.89532647748746" y="68.62343606796034">(brace)</text><text class="dim" text-anchor="middle" x="81.89532647748746" y="81.62343606796034">t=9.5mm</text><line class="engrave" x1="20.0" x2="143.79065295497492" y1="112.24687213592068" y2="112.24687213592068" /><text class="dim" text-anchor="middle" x="81.89532647748746" y="117.24687213592068">124mm</text><line class="engrave" x1="148.79065295497492" x2="148.79065295497492" y1="20.0" y2="107.24687213592068" /><text class="dim" text-anchor="middle" transform="rotate(-90, 153.79065295497492, 63.62343606796034)" x="153.79065295497492" y="63.62343606796034">87mm</text></svg>