<?xml version="1.0" encoding="utf-8" ?>
<svg baseProfile="full" height="607.9019690015433mm" version="1.1" viewBox="0 0 83.98329670562975 607.9019690015433" width="83.98329670562975mm" xmlns="http://www.w3.org/2000/svg" xmlns:ev="http://www.w3.org/2001/xml-events" xmlns:xlink="http://www.w3.org/1999/xlink"><defs><style type="text/css"><![CDATA[
        .cut { stroke: #ff0000; stroke-width: 0.5; fill: none; }
        .engrave { stroke: #0000ff; stroke-width: 0.25; fill: none; }
        .label { font-size: 12px; font-family: Arial, sans-serif; fill: #333; }
        .dim { font-size: 10px; font-family: Arial, sans-serif; fill: #666; }
    ]]></style></defs><polygon class="cut" points="20.775398080514037,270.92235389352015 24.067633390049537,282.65370467829484 26.581125321607146,298.087394886942 25.98859895265315,318.9376433178229 20.0,339.88638880791916 21.316358061995288,359.38432738529224 21.594484038911958,379.5629611562324 23.567222442803654,381.6867482815508 23.642327903786224,392.46959098050223 21.314125166098904,396.5689974150834 26.423709606949956,405.2586616919068 21.56888167433783,410.8033052689746 21.5223030891255,435.3275843575347 22.829896539504887,455.40170788277135 24.933574136696677,471.56240591353173 23.615805266071163,492.1525834504127 24.060497350185017,504.40798994643035 24.41215667746502,502.9934125921905 24.564733519388824,524.8987715959624 25.107014704005337,524.8949944585702 24.486677461829743,526.6557134974528 24.97461324705904,540.4984794487564 32.8422576784796,552.3255833824048 27.614052398335843,573.0129860642444 31.014920058860866,586.4696480796526 48.98400758891074,587.9019690015433 48.40363861068215,574.9674946192468 51.55409473261227,564.4824867112007 47.539728206875054,548.2307710278536 52.033897471389764,539.3867583827054 48.406615220491176,521.4547181103251 48.055656401440274,505.39663611799745 42.93997671134781,494.28199998315677 50.44923859381021,483.12353131450345 55.23886080644979,460.2367503374769 49.516490540213795,445.015513517852 48.343164952184054,408.75866108686057 52.07096689521944,394.1140190966854 52.81458119814636,383.1616418372353 52.292646924373855,367.7022186542016 51.03653212662124,356.29319333719184 56.92442801710712,330.44151368292296 57.45307854527073,311.07138210701976 55.70121651264918,300.8264796814019 56.78403887183231,284.047183683689 56.04234549340714,267.4734042370653 57.78348437797018,247.6452420059823 53.61708520567197,244.24026279096358 55.610182663653745,225.4483486633693 58.89401748295268,213.33702835247004 54.11597814975528,196.03617954655567 56.802950428976374,184.027156888852 55.57548486068231,166.12674292730338 58.33121416232257,175.94231288115094 57.96575478852202,162.20271110354088 55.291975099487104,151.60035165836626 63.983296705629755,141.55892183217628 55.02741798775992,124.96163266856797 58.922716453422254,102.49169650300439 56.305351090993554,85.40691941608367 51.12038293225396,76.60969082895713 55.79061400327208,61.47322139028029 53.269322178770494,50.85023306600743 53.03078955894938,35.88172671107873 51.16142186134675,20.0 39.12945463149009,24.436058193595045 22.94591056395103,23.44763239813966 21.917911073934533,34.389360538390065 31.064286569802675,43.536814935886355 28.226828037697942,63.40483810731723 20.97775409652195,74.18354281077251 28.224565037613047,87.99848505296961 25.263071712271994,99.93116686336191 21.490885341927367,103.3270583704205 23.274338550294374,117.80619155185195 27.860081621057702,131.41391284046972 21.27900894906122,142.7920702283393 22.782324636612543,160.13606321467125 20.95317667794791,179.66915601161674 22.064660018554207,203.5960433269707 20.41958834526713,232.87063350225253 23.154328895308765,242.26522284783482 22.83571716491474,253.33809042941323" /><text class="label" text-anchor="middle" x="41.99164835281488" y="293.95098450077165">part_4</text><text class="dim" text-anchor="middle" x="41.99164835281488" y="308.95098450077165">(leg)</text><text class="dim" text-anchor="middle" x="41.99164835281488" y="321.95098450077165">t=9.5mm</text><line class="engrave" x1="20.0" x2="63.983296705629755" y1="592.9019690015433" y2="592.9019690015433" /><text class="dim" text-anchor="middle" x="41.99164835281488" y="597.9019690015433">44mm</text><line class="engrave" x1="68.98329670562975" x2="68.98329670562975" y1="20.0" y2="587.9019690015433" /><text class="dim" text-anchor="middle" transform="rotate(-90, 73.98329670562975, 303.95098450077165)" x="73.98329670562975" y="303.95098450077165">568mm</text></svg>