<?xml version="1.0" encoding="utf-8" ?>
<svg baseProfile="full" height="256.0351170272523mm" version="1.1" viewBox="0 0 96.4534860880027 256.0351170272523" width="96.4534860880027mm" xmlns="http://www.w3.org/2000/svg" xmlns:ev="http://www.w3.org/2001/xml-events" xmlns:xlink="http://www.w3.org/1999/xlink"><defs><style type="text/css"><![CDATA[
        .cut { stroke: #ff0000; stroke-width: 0.5; fill: none; }
        .engrave { stroke: #0000ff; stroke-width: 0.25; fill: none; }
        .label { font-size: 12px; font-family: Arial, sans-serif; fill: #333; }
        .dim { font-size: 10px; font-family: Arial, sans-serif; fill: #666; }
    ]]></style></defs><polygon class="cut" points="36.00281820707551,205.90054624118824 38.43462965378069,206.41515308154823 44.645526710814806,177.06511461910458 43.37741426632158,176.79676349378764 48.46960437468442,159.653905859698 50.011906174295405,143.7275026427377 51.627887739289804,144.0694679576755 54.91370847929318,128.5420869345797 55.16485853001268,128.0539869278851 55.325691699714525,126.59523074710597 57.83878479632392,114.71942949523185 56.66248648693727,114.47050758266562 57.26418041053728,109.01314619623133 60.54709658096613,103.06465414992329 61.95939822432581,91.46716987753268 64.21756685057017,81.59605670221617 64.82114582479892,81.72378283380272 66.52301708104244,73.68146843538528 67.2566310169434,71.81035291604098 66.90875365893157,71.85864263527088 71.03204288183304,52.37374437135907 69.47044671771289,52.04328780202883 70.65844458491574,46.1001991354625 74.41031899351276,37.837362553896355 76.4534860880027,24.822409485929143 70.74442744514249,20.0 58.0022347622737,44.221813454976655 51.88776220435352,58.9076902877494 50.68541832474057,68.78626174620524 47.56732512252597,82.43651143068348 47.494283774321275,100.78555477283413 40.077435661924255,109.84674462164668 47.737775403761475,125.64619475281302 47.70108212964976,125.8195914452075 38.800733489976324,115.01497062096126 34.58643977949089,133.79065094010292 34.79978663672091,149.32714689556366 30.359288774304332,159.57173594968532 27.351663857249264,175.12641271535261 28.13815122001722,191.615984053793 20.0,203.48153377750526 23.308827056730365,215.12745191346465 22.57214671096699,236.03511702725228 33.28025438617783,218.99265090415244" /><text class="label" text-anchor="middle" x="48.22674304400135" y="118.01755851362614">part_6</text><text class="dim" text-anchor="middle" x="48.22674304400135" y="133.01755851362614">(leg)</text><text class="dim" text-anchor="middle" x="48.22674304400135" y="146.01755851362614">t=9.5mm</text><line class="engrave" x1="20.0" x2="76.4534860880027" y1="241.03511702725228" y2="241.03511702725228" /><text class="dim" text-anchor="middle" x="48.22674304400135" y="246.03511702725228">56mm</text><line class="engrave" x1="81.4534860880027" x2="81.4534860880027" y1="20.0" y2="236.03511702725228" /><text class="dim" text-anchor="middle" transform="rotate(-90, 86.4534860880027, 128.01755851362614)" x="86.4534860880027" y="128.01755851362614">216mm</text></svg>