<?xml version="1.0" encoding="utf-8" ?>
<svg baseProfile="full" height="299.5456758782488mm" version="1.1" viewBox="0 0 108.94053818314433 299.5456758782488" width="108.94053818314433mm" xmlns="http://www.w3.org/2000/svg" xmlns:ev="http://www.w3.org/2001/xml-events" xmlns:xlink="http://www.w3.org/1999/xlink"><defs><style type="text/css"><![CDATA[
        .cut { stroke: #ff0000; stroke-width: 0.5; fill: none; }
        .engrave { stroke: #0000ff; stroke-width: 0.25; fill: none; }
        .label { font-size: 12px; font-family: Arial, sans-serif; fill: #333; }
        .dim { font-size: 10px; font-family: Arial, sans-serif; fill: #666; }
    ]]></style></defs><polygon class="cut" points="21.824413674256448,279.5456758782488 35.909766937816926,263.72553019134796 33.728887065651406,256.2282727285411 41.026456146089004,240.0132849169525 43.66435005574181,221.01741695889072 48.439530396335385,205.48713056277342 53.77105075241616,196.34697010237903 54.68107089325633,176.3786115833745 58.931538255992336,160.64459130867698 62.249281562884676,142.35837950909826 64.23169656743914,136.78729701405257 67.4551316333982,120.27451842444918 69.64006967878981,91.73221535078397 70.00628569717173,117.20643039722518 83.22272102904662,52.61996923152742 88.94053818314433,29.967387824635807 77.04896087048928,20.0 75.18729975380029,33.94925587444396 77.41417667669691,44.24206466470241 70.97558966086967,45.754994326417716 70.66175207495883,46.50622660789469 65.71945446969528,45.469056102669924 59.55798854265879,74.8295114402489 59.674495726770374,74.8539611647816 56.12463340592785,89.40683338247192 59.672195940755046,98.17249799138762 57.645449123505955,104.66651307521835 53.4799625538468,103.7923609793674 47.318496626810315,133.15281631694637 47.71300150254103,133.2356055081192 45.88840533225584,143.12168549695684 40.46278777541556,158.70289318917852 32.21225139232047,193.07262999824084 30.841910241724122,202.00383170061536 22.903495855962774,236.43129985545258 20.0,260.32732315477176" /><text class="label" text-anchor="middle" x="54.47026909157216" y="139.7728379391244">part_1</text><text class="dim" text-anchor="middle" x="54.47026909157216" y="154.7728379391244">(leg)</text><text class="dim" text-anchor="middle" x="54.47026909157216" y="167.7728379391244">t=9.5mm</text><line class="engrave" x1="20.0" x2="88.94053818314433" y1="284.5456758782488" y2="284.5456758782488" /><text class="dim" text-anchor="middle" x="54.47026909157216" y="289.5456758782488">69mm</text><line class="engrave" x1="93.94053818314433" x2="93.94053818314433" y1="20.0" y2="279.5456758782488" /><text class="dim" text-anchor="middle" transform="rotate(-90, 98.94053818314433, 149.7728379391244)" x="98.94053818314433" y="149.7728379391244">260mm</text></svg>