<?xml version="1.0" encoding="utf-8" ?>
<svg baseProfile="full" height="1220.0mm" version="1.1" viewBox="0 0 2440.0 1220.0" width="2440.0mm" xmlns="http://www.w3.org/2000/svg" xmlns:ev="http://www.w3.org/2001/xml-events" xmlns:xlink="http://www.w3.org/1999/xlink"><defs><style type="text/css"><![CDATA[
        .cut { stroke: #ff0000; stroke-width: 0.5; fill: none; }
        .sheet { stroke: #cccccc; stroke-width: 1; fill: #f9f9f9; }
        .label { font-size: 8px; font-family: Arial, sans-serif; fill: #333; }
    ]]></style></defs><rect class="sheet" height="1220.0" width="2440.0" x="0" y="0" /><polygon class="cut" points="10.0,10.0 950.3664030640273,10.0 950.3664030640273,713.0790215281345 10.0,713.0790215281345" /><text class="label" text-anchor="middle" x="480.18320153201364" y="361.53951076406724">comp_0</text><polygon class="cut" points="960.3664030640273,10.0 1032.6529496722812,10.0 1032.6529496722812,652.1942074462391 960.3664030640273,652.1942074462391" /><text class="label" text-anchor="middle" x="996.5096763681543" y="331.0971037231196">comp_1</text><polygon class="cut" points="1042.6529496722812,10.0 1114.9394962805352,10.0 1114.9394962805352,652.1942074462391 1042.6529496722812,652.1942074462391" /><text class="label" text-anchor="middle" x="1078.7962229764082" y="331.0971037231196">comp_2</text><polygon class="cut" points="1124.9394962805352,10.0 1197.2260428887892,10.0 1197.2260428887892,652.1942074462391 1124.9394962805352,652.1942074462391" /><text class="label" text-anchor="middle" x="1161.0827695846622" y="331.0971037231196">comp_3</text><polygon class="cut" points="1207.2260428887892,10.0 1279.512589497043,10.0 1279.512589497043,652.1942074462391 1207.2260428887892,652.1942074462391" /><text class="label" text-anchor="middle" x="1243.3693161929161" y="331.0971037231196">comp_4</text><polygon class="cut" points="1289.512589497043,10.0 1853.7324313354593,10.0 1853.7324313354593,46.0 1289.512589497043,46.0" /><text class="label" text-anchor="middle" x="1571.6225104162513" y="28.0">comp_5</text></svg>