<?xml version="1.0" encoding="utf-8" ?>
<svg baseProfile="full" height="1220.0mm" version="1.1" viewBox="0 0 2440.0 1220.0" width="2440.0mm" xmlns="http://www.w3.org/2000/svg" xmlns:ev="http://www.w3.org/2001/xml-events" xmlns:xlink="http://www.w3.org/1999/xlink"><defs><style type="text/css"><![CDATA[
        .cut { stroke: #ff0000; stroke-width: 0.5; fill: none; }
        .sheet { stroke: #cccccc; stroke-width: 1; fill: #f9f9f9; }
        .label { font-size: 8px; font-family: Arial, sans-serif; fill: #333; }
    ]]></style></defs><rect class="sheet" height="1220.0" width="2440.0" x="0" y="0" /><polygon class="cut" points="10.0,10.0 1150.5007703258573,10.0 1150.5007703258573,696.4208174301774 10.0,696.4208174301774" /><text class="label" text-anchor="middle" x="580.2503851629286" y="353.2104087150887">comp_0</text><polygon class="cut" points="1160.5007703258573,10.0 1219.0499130793416,10.0 1219.0499130793416,790.9375325958707 1160.5007703258573,790.9375325958707" /><text class="label" text-anchor="middle" x="1189.7753417025995" y="400.46876629793536">comp_1</text><polygon class="cut" points="1229.0499130793416,10.0 1287.599055832826,10.0 1287.599055832826,790.9375325958707 1229.0499130793416,790.9375325958707" /><text class="label" text-anchor="middle" x="1258.3244844560838" y="400.46876629793536">comp_2</text><polygon class="cut" points="1297.599055832826,10.0 1356.1481985863104,10.0 1356.1481985863104,790.9375325958707 1297.599055832826,790.9375325958707" /><text class="label" text-anchor="middle" x="1326.8736272095682" y="400.46876629793536">comp_3</text><polygon class="cut" points="1366.1481985863104,10.0 1424.6973413397948,10.0 1424.6973413397948,790.9375325958707 1366.1481985863104,790.9375325958707" /><text class="label" text-anchor="middle" x="1395.4227699630526" y="400.46876629793536">comp_4</text><polygon class="cut" points="1434.6973413397948,10.0 1493.2464840932792,10.0 1493.2464840932792,790.9375325958707 1434.6973413397948,790.9375325958707" /><text class="label" text-anchor="middle" x="1463.971912716537" y="400.46876629793536">comp_5</text><polygon class="cut" points="1503.2464840932792,10.0 1561.7956268467635,10.0 1561.7956268467635,790.9375325958707 1503.2464840932792,790.9375325958707" /><text class="label" text-anchor="middle" x="1532.5210554700213" y="400.46876629793536">comp_6</text></svg>