<?xml version="1.0" encoding="utf-8" ?>
<svg baseProfile="full" height="1220.0mm" version="1.1" viewBox="0 0 2440.0 1220.0" width="2440.0mm" xmlns="http://www.w3.org/2000/svg" xmlns:ev="http://www.w3.org/2001/xml-events" xmlns:xlink="http://www.w3.org/1999/xlink"><defs><style type="text/css"><![CDATA[
        .cut { stroke: #ff0000; stroke-width: 0.5; fill: none; }
        .sheet { stroke: #cccccc; stroke-width: 1; fill: #f9f9f9; }
        .label { font-size: 8px; font-family: Arial, sans-serif; fill: #333; }
    ]]></style></defs><rect class="sheet" height="1220.0" width="2440.0" x="0" y="0" /><polygon class="cut" points="10.0,10.0 1551.4586417377493,10.0 1551.4586417377493,929.6145154765178 10.0,929.6145154765178" /><text class="label" text-anchor="middle" x="780.7293208688747" y="469.8072577382589">comp_0</text><polygon class="cut" points="1561.4586417377493,10.0 1627.9280293956251,10.0 1627.9280293956251,840.4149195663206 1561.4586417377493,840.4149195663206" /><text class="label" text-anchor="middle" x="1594.6933355666872" y="425.2074597831603">comp_1</text><polygon class="cut" points="1637.9280293956251,10.0 1704.397417053501,10.0 1704.397417053501,840.4149195663206 1637.9280293956251,840.4149195663206" /><text class="label" text-anchor="middle" x="1671.162723224563" y="425.2074597831603">comp_2</text><polygon class="cut" points="1714.397417053501,10.0 1780.8668047113767,10.0 1780.8668047113767,840.4149195663206 1714.397417053501,840.4149195663206" /><text class="label" text-anchor="middle" x="1747.6321108824388" y="425.2074597831603">comp_3</text><polygon class="cut" points="1790.8668047113767,10.0 1857.3361923692526,10.0 1857.3361923692526,840.4149195663206 1790.8668047113767,840.4149195663206" /><text class="label" text-anchor="middle" x="1824.1014985403147" y="425.2074597831603">comp_4</text><polygon class="cut" points="1867.3361923692526,10.0 1933.8055800271284,10.0 1933.8055800271284,840.4149195663206 1867.3361923692526,840.4149195663206" /><text class="label" text-anchor="middle" x="1900.5708861981905" y="425.2074597831603">comp_5</text><polygon class="cut" points="1943.8055800271284,10.0 2010.2749676850042,10.0 2010.2749676850042,840.4149195663206 1943.8055800271284,840.4149195663206" /><text class="label" text-anchor="middle" x="1977.0402738560663" y="425.2074597831603">comp_6</text></svg>