<?xml version="1.0" encoding="utf-8" ?>
<svg baseProfile="full" height="1220.0mm" version="1.1" viewBox="0 0 2440.0 1220.0" width="2440.0mm" xmlns="http://www.w3.org/2000/svg" xmlns:ev="http://www.w3.org/2001/xml-events" xmlns:xlink="http://www.w3.org/1999/xlink"><defs><style type="text/css"><![CDATA[
        .cut { stroke: #ff0000; stroke-width: 0.5; fill: none; }
        .sheet { stroke: #cccccc; stroke-width: 1; fill: #f9f9f9; }
        .label { font-size: 8px; font-family: Arial, sans-serif; fill: #333; }
    ]]></style></defs><rect class="sheet" height="1220.0" width="2440.0" x="0" y="0" /><polygon class="cut" points="10.0,10.0 1272.190790725339,10.0 1272.190790725339,787.5306220084984 10.0,787.5306220084984" /><text class="label" text-anchor="middle" x="641.0953953626695" y="398.7653110042492">comp_0</text><polygon class="cut" points="1282.190790725339,10.0 1357.9974304902596,10.0 1357.9974304902596,657.5825111979034 1282.190790725339,657.5825111979034" /><text class="label" text-anchor="middle" x="1320.0941106077994" y="333.7912555989517">comp_1</text><polygon class="cut" points="1367.9974304902596,10.0 1443.8040702551802,10.0 1443.8040702551802,657.5825111979034 1367.9974304902596,657.5825111979034" /><text class="label" text-anchor="middle" x="1405.90075037272" y="333.7912555989517">comp_2</text><polygon class="cut" points="1453.8040702551802,10.0 1529.610710020101,10.0 1529.610710020101,657.5825111979034 1453.8040702551802,657.5825111979034" /><text class="label" text-anchor="middle" x="1491.7073901376407" y="333.7912555989517">comp_3</text><polygon class="cut" points="1539.610710020101,10.0 1615.4173497850215,10.0 1615.4173497850215,657.5825111979034 1539.610710020101,657.5825111979034" /><text class="label" text-anchor="middle" x="1577.5140299025613" y="333.7912555989517">comp_4</text><polygon class="cut" points="1625.4173497850215,10.0 1701.2239895499422,10.0 1701.2239895499422,657.5825111979034 1625.4173497850215,657.5825111979034" /><text class="label" text-anchor="middle" x="1663.320669667482" y="333.7912555989517">comp_5</text><polygon class="cut" points="1711.2239895499422,10.0 1787.0306293148628,10.0 1787.0306293148628,657.5825111979034 1711.2239895499422,657.5825111979034" /><text class="label" text-anchor="middle" x="1749.1273094324026" y="333.7912555989517">comp_6</text></svg>