<?xml version="1.0" encoding="utf-8" ?>
<svg baseProfile="full" height="1220.0mm" version="1.1" viewBox="0 0 2440.0 1220.0" width="2440.0mm" xmlns="http://www.w3.org/2000/svg" xmlns:ev="http://www.w3.org/2001/xml-events" xmlns:xlink="http://www.w3.org/1999/xlink"><defs><style type="text/css"><![CDATA[
        .cut { stroke: #ff0000; stroke-width: 0.5; fill: none; }
        .sheet { stroke: #cccccc; stroke-width: 1; fill: #f9f9f9; }
        .label { font-size: 8px; font-family: Arial, sans-serif; fill: #333; }
    ]]></style></defs><rect class="sheet" height="1220.0" width="2440.0" x="0" y="0" /><polygon class="cut" points="10.0,10.0 1077.2070439817182,10.0 1077.2070439817182,838.3646675944583 10.0,838.3646675944583" /><text class="label" text-anchor="middle" x="543.6035219908591" y="424.18233379722915">comp_0</text><polygon class="cut" points="1087.2070439817182,10.0 1165.1646820997819,10.0 1165.1646820997819,713.6342125199659 1087.2070439817182,713.6342125199659" /><text class="label" text-anchor="middle" x="1126.18586304075" y="361.81710625998295">comp_1</text><polygon class="cut" points="1175.1646820997819,10.0 1253.1223202178455,10.0 1253.1223202178455,713.6342125199659 1175.1646820997819,713.6342125199659" /><text class="label" text-anchor="middle" x="1214.1435011588137" y="361.81710625998295">comp_2</text><polygon class="cut" points="1263.1223202178455,10.0 1341.0799583359092,10.0 1341.0799583359092,713.6342125199659 1263.1223202178455,713.6342125199659" /><text class="label" text-anchor="middle" x="1302.1011392768773" y="361.81710625998295">comp_3</text><polygon class="cut" points="1351.0799583359092,10.0 1429.0375964539728,10.0 1429.0375964539728,713.6342125199659 1351.0799583359092,713.6342125199659" /><text class="label" text-anchor="middle" x="1390.058777394941" y="361.81710625998295">comp_4</text><polygon class="cut" points="1439.0375964539728,10.0 1516.9952345720365,10.0 1516.9952345720365,713.6342125199659 1439.0375964539728,713.6342125199659" /><text class="label" text-anchor="middle" x="1478.0164155130046" y="361.81710625998295">comp_5</text><polygon class="cut" points="1526.9952345720365,10.0 1604.9528726901,10.0 1604.9528726901,713.6342125199659 1526.9952345720365,713.6342125199659" /><text class="label" text-anchor="middle" x="1565.9740536310683" y="361.81710625998295">comp_6</text></svg>