<?xml version="1.0" encoding="utf-8" ?>
<svg baseProfile="full" height="1220.0mm" version="1.1" viewBox="0 0 2440.0 1220.0" width="2440.0mm" xmlns="http://www.w3.org/2000/svg" xmlns:ev="http://www.w3.org/2001/xml-events" xmlns:xlink="http://www.w3.org/1999/xlink"><defs><style type="text/css"><![CDATA[
        .cut { stroke: #ff0000; stroke-width: 0.5; fill: none; }
        .sheet { stroke: #cccccc; stroke-width: 1; fill: #f9f9f9; }
        .label { font-size: 8px; font-family: Arial, sans-serif; fill: #333; }
    ]]></style></defs><rect class="sheet" height="1220.0" width="2440.0" x="0" y="0" /><polygon class="cut" points="10.0,10.0 996.0604004582713,10.0 996.0604004582713,377.4120518894542 10.0,377.4120518894542" /><text class="label" text-anchor="middle" x="503.03020022913563" y="193.7060259447271">comp_2</text><polygon class="cut" points="1006.0604004582713,10.0 1992.1208009165425,10.0 1992.1208009165425,377.4120518894542 1006.0604004582713,377.4120518894542" /><text class="label" text-anchor="middle" x="1499.090600687407" y="193.7060259447271">comp_3</text><polygon class="cut" points="10.0,387.4120518894542 996.0604004582713,387.4120518894542 996.0604004582713,754.8241037789084 10.0,754.8241037789084" /><text class="label" text-anchor="middle" x="503.03020022913563" y="571.1180778341812">comp_4</text><polygon class="cut" points="1006.0604004582713,387.4120518894542 1992.1208009165425,387.4120518894542 1992.1208009165425,754.8241037789084 1006.0604004582713,754.8241037789084" /><text class="label" text-anchor="middle" x="1499.090600687407" y="571.1180778341812">comp_5</text><polygon class="cut" points="10.0,764.8241037789084 996.0604004582713,764.8241037789084 996.0604004582713,1132.2361556683625 10.0,1132.2361556683625" /><text class="label" text-anchor="middle" x="503.03020022913563" y="948.5301297236355">comp_6</text><polygon class="cut" points="1006.0604004582713,764.8241037789084 1992.1208009165425,764.8241037789084 1992.1208009165425,1132.2361556683625 1006.0604004582713,1132.2361556683625" /><text class="label" text-anchor="middle" x="1499.090600687407" y="948.5301297236355">comp_7</text></svg>