<?xml version="1.0" encoding="utf-8" ?>
<svg baseProfile="full" height="1220.0mm" version="1.1" viewBox="0 0 2440.0 1220.0" width="2440.0mm" xmlns="http://www.w3.org/2000/svg" xmlns:ev="http://www.w3.org/2001/xml-events" xmlns:xlink="http://www.w3.org/1999/xlink"><defs><style type="text/css"><![CDATA[
        .cut { stroke: #ff0000; stroke-width: 0.5; fill: none; }
        .sheet { stroke: #cccccc; stroke-width: 1; fill: #f9f9f9; }
        .label { font-size: 8px; font-family: Arial, sans-serif; fill: #333; }
    ]]></style></defs><rect class="sheet" height="1220.0" width="2440.0" x="0" y="0" /><polygon class="cut" points="10.0,10.0 1450.1488679582642,10.0 1450.1488679582642,918.7286893512183 10.0,918.7286893512183" /><text class="label" text-anchor="middle" x="730.0744339791321" y="464.3643446756092">comp_0</text><polygon class="cut" points="1460.1488679582642,10.0 1502.115635691744,10.0 1502.115635691744,655.5261909879197 1460.1488679582642,655.5261909879197" /><text class="label" text-anchor="middle" x="1481.1322518250042" y="332.76309549395984">comp_1</text><polygon class="cut" points="1512.115635691744,10.0 1554.082403425224,10.0 1554.082403425224,655.5261909879197 1512.115635691744,655.5261909879197" /><text class="label" text-anchor="middle" x="1533.099019558484" y="332.76309549395984">comp_2</text><polygon class="cut" points="1564.082403425224,10.0 1606.0491711587038,10.0 1606.0491711587038,655.5261909879197 1564.082403425224,655.5261909879197" /><text class="label" text-anchor="middle" x="1585.065787291964" y="332.76309549395984">comp_3</text><polygon class="cut" points="1616.0491711587038,10.0 1658.0159388921836,10.0 1658.0159388921836,655.5261909879197 1616.0491711587038,655.5261909879197" /><text class="label" text-anchor="middle" x="1637.0325550254438" y="332.76309549395984">comp_4</text><polygon class="cut" points="1668.0159388921836,10.0 1709.9827066256635,10.0 1709.9827066256635,655.5261909879197 1668.0159388921836,655.5261909879197" /><text class="label" text-anchor="middle" x="1688.9993227589237" y="332.76309549395984">comp_5</text><polygon class="cut" points="1719.9827066256635,10.0 1761.9494743591433,10.0 1761.9494743591433,655.5261909879197 1719.9827066256635,655.5261909879197" /><text class="label" text-anchor="middle" x="1740.9660904924035" y="332.76309549395984">comp_6</text></svg>