<?xml version="1.0" encoding="utf-8" ?>
<svg baseProfile="full" height="1220.0mm" version="1.1" viewBox="0 0 2440.0 1220.0" width="2440.0mm" xmlns="http://www.w3.org/2000/svg" xmlns:ev="http://www.w3.org/2001/xml-events" xmlns:xlink="http://www.w3.org/1999/xlink"><defs><style type="text/css"><![CDATA[
        .cut { stroke: #ff0000; stroke-width: 0.5; fill: none; }
        .sheet { stroke: #cccccc; stroke-width: 1; fill: #f9f9f9; }
        .label { font-size: 8px; font-family: Arial, sans-serif; fill: #333; }
    ]]></style></defs><rect class="sheet" height="1220.0" width="2440.0" x="0" y="0" /><polygon class="cut" points="10.0,10.0 854.4961689139132,10.0 854.4961689139132,235.56469828209393 10.0,235.56469828209393" /><text class="label" text-anchor="middle" x="432.2480844569566" y="122.78234914104696">comp_2</text><polygon class="cut" points="864.4961689139132,10.0 1708.9923378278263,10.0 1708.9923378278263,235.56469828209393 864.4961689139132,235.56469828209393" /><text class="label" text-anchor="middle" x="1286.7442533708697" y="122.78234914104696">comp_3</text><polygon class="cut" points="10.0,245.56469828209393 854.4961689139132,245.56469828209393 854.4961689139132,471.12939656418786 10.0,471.12939656418786" /><text class="label" text-anchor="middle" x="432.2480844569566" y="358.3470474231409">comp_4</text><polygon class="cut" points="864.4961689139132,245.56469828209393 1708.9923378278263,245.56469828209393 1708.9923378278263,471.12939656418786 864.4961689139132,471.12939656418786" /><text class="label" text-anchor="middle" x="1286.7442533708697" y="358.3470474231409">comp_5</text><polygon class="cut" points="10.0,481.12939656418786 854.4961689139132,481.12939656418786 854.4961689139132,706.6940948462818 10.0,706.6940948462818" /><text class="label" text-anchor="middle" x="432.2480844569566" y="593.9117457052348">comp_6</text><polygon class="cut" points="864.4961689139132,481.12939656418786 1744.9923378278263,481.12939656418786 1744.9923378278263,706.6940948462818 864.4961689139132,706.6940948462818" /><text class="label" text-anchor="middle" x="1304.7442533708697" y="593.9117457052348">comp_7</text></svg>